ISO-10303-21;
HEADER;
/* Generated by software containing ST-Developer
 * from STEP Tools, Inc. (www.steptools.com) 
 */

FILE_DESCRIPTION(
/* description */ (''),
/* implementation_level */ '2;1');

FILE_NAME(
/* name */ 'ConnectorPartAcap.step',
/* time_stamp */ '2026-06-07T20:29:07-05:00',
/* author */ (''),
/* organization */ (''),
/* preprocessor_version */ 'ST-DEVELOPER v20.1',
/* originating_system */ 'Autodesk Translation Framework v14.21.0.0',
/* authorisation */ '');

FILE_SCHEMA (('AUTOMOTIVE_DESIGN { 1 0 10303 214 3 1 1 }'));
ENDSEC;

DATA;
#10=MECHANICAL_DESIGN_GEOMETRIC_PRESENTATION_REPRESENTATION('',(#13),#1542);
#11=SHAPE_REPRESENTATION_RELATIONSHIP('SRR','None',#1549,#12);
#12=ADVANCED_BREP_SHAPE_REPRESENTATION('',(#14),#1541);
#13=STYLED_ITEM('',(#1558),#14);
#14=MANIFOLD_SOLID_BREP('Body1',#826);
#15=ELLIPSE('',#971,0.282842712474619,0.2);
#16=ELLIPSE('',#972,0.282842712474619,0.2);
#17=ELLIPSE('',#974,0.28284271247462,0.2);
#18=ELLIPSE('',#976,0.28284271247462,0.2);
#19=FACE_BOUND('',#130,.T.);
#20=FACE_BOUND('',#131,.T.);
#21=FACE_BOUND('',#132,.T.);
#22=FACE_BOUND('',#133,.T.);
#23=FACE_BOUND('',#134,.T.);
#24=FACE_BOUND('',#137,.T.);
#25=FACE_BOUND('',#138,.T.);
#26=FACE_BOUND('',#139,.T.);
#27=FACE_BOUND('',#140,.T.);
#28=FACE_BOUND('',#141,.T.);
#29=FACE_BOUND('',#144,.T.);
#30=FACE_BOUND('',#150,.T.);
#31=FACE_BOUND('',#156,.T.);
#32=FACE_BOUND('',#160,.T.);
#33=PLANE('',#871);
#34=PLANE('',#877);
#35=PLANE('',#887);
#36=PLANE('',#904);
#37=PLANE('',#921);
#38=PLANE('',#931);
#39=PLANE('',#961);
#40=PLANE('',#978);
#41=PLANE('',#979);
#42=PLANE('',#980);
#43=SPHERICAL_SURFACE('',#848,0.2);
#44=SPHERICAL_SURFACE('',#853,0.2);
#45=SPHERICAL_SURFACE('',#860,0.2);
#46=SPHERICAL_SURFACE('',#862,0.2);
#47=TOROIDAL_SURFACE('',#843,3.3,0.2);
#48=TOROIDAL_SURFACE('',#855,3.3,0.2);
#49=TOROIDAL_SURFACE('',#864,14.7,0.2);
#50=TOROIDAL_SURFACE('',#869,14.7,0.2);
#51=TOROIDAL_SURFACE('',#882,2.36,0.3);
#52=TOROIDAL_SURFACE('',#892,1.7,0.3);
#53=TOROIDAL_SURFACE('',#899,2.36,0.3);
#54=TOROIDAL_SURFACE('',#909,1.7,0.3);
#55=TOROIDAL_SURFACE('',#916,1.7,0.3);
#56=TOROIDAL_SURFACE('',#926,1.7,0.3);
#57=TOROIDAL_SURFACE('',#936,2.36,0.3);
#58=TOROIDAL_SURFACE('',#943,2.36,0.3);
#59=TOROIDAL_SURFACE('',#950,1.6,0.2);
#60=TOROIDAL_SURFACE('',#952,1.6,0.2);
#61=TOROIDAL_SURFACE('',#954,1.6,0.2);
#62=TOROIDAL_SURFACE('',#956,1.6,0.2);
#63=TOROIDAL_SURFACE('',#962,2.86,0.2);
#64=TOROIDAL_SURFACE('',#964,2.86,0.2);
#65=TOROIDAL_SURFACE('',#966,2.86,0.2);
#66=TOROIDAL_SURFACE('',#968,2.86,0.2);
#67=FACE_OUTER_BOUND('',#118,.T.);
#68=FACE_OUTER_BOUND('',#119,.T.);
#69=FACE_OUTER_BOUND('',#120,.T.);
#70=FACE_OUTER_BOUND('',#121,.T.);
#71=FACE_OUTER_BOUND('',#122,.T.);
#72=FACE_OUTER_BOUND('',#123,.T.);
#73=FACE_OUTER_BOUND('',#124,.T.);
#74=FACE_OUTER_BOUND('',#125,.T.);
#75=FACE_OUTER_BOUND('',#126,.T.);
#76=FACE_OUTER_BOUND('',#127,.T.);
#77=FACE_OUTER_BOUND('',#128,.T.);
#78=FACE_OUTER_BOUND('',#129,.T.);
#79=FACE_OUTER_BOUND('',#135,.T.);
#80=FACE_OUTER_BOUND('',#136,.T.);
#81=FACE_OUTER_BOUND('',#142,.T.);
#82=FACE_OUTER_BOUND('',#143,.T.);
#83=FACE_OUTER_BOUND('',#145,.T.);
#84=FACE_OUTER_BOUND('',#146,.T.);
#85=FACE_OUTER_BOUND('',#147,.T.);
#86=FACE_OUTER_BOUND('',#148,.T.);
#87=FACE_OUTER_BOUND('',#149,.T.);
#88=FACE_OUTER_BOUND('',#151,.T.);
#89=FACE_OUTER_BOUND('',#152,.T.);
#90=FACE_OUTER_BOUND('',#153,.T.);
#91=FACE_OUTER_BOUND('',#154,.T.);
#92=FACE_OUTER_BOUND('',#155,.T.);
#93=FACE_OUTER_BOUND('',#157,.T.);
#94=FACE_OUTER_BOUND('',#158,.T.);
#95=FACE_OUTER_BOUND('',#159,.T.);
#96=FACE_OUTER_BOUND('',#161,.T.);
#97=FACE_OUTER_BOUND('',#162,.T.);
#98=FACE_OUTER_BOUND('',#163,.T.);
#99=FACE_OUTER_BOUND('',#164,.T.);
#100=FACE_OUTER_BOUND('',#165,.T.);
#101=FACE_OUTER_BOUND('',#166,.T.);
#102=FACE_OUTER_BOUND('',#167,.T.);
#103=FACE_OUTER_BOUND('',#168,.T.);
#104=FACE_OUTER_BOUND('',#169,.T.);
#105=FACE_OUTER_BOUND('',#170,.T.);
#106=FACE_OUTER_BOUND('',#171,.T.);
#107=FACE_OUTER_BOUND('',#172,.T.);
#108=FACE_OUTER_BOUND('',#173,.T.);
#109=FACE_OUTER_BOUND('',#174,.T.);
#110=FACE_OUTER_BOUND('',#175,.T.);
#111=FACE_OUTER_BOUND('',#176,.T.);
#112=FACE_OUTER_BOUND('',#177,.T.);
#113=FACE_OUTER_BOUND('',#178,.T.);
#114=FACE_OUTER_BOUND('',#179,.T.);
#115=FACE_OUTER_BOUND('',#180,.T.);
#116=FACE_OUTER_BOUND('',#181,.T.);
#117=FACE_OUTER_BOUND('',#182,.T.);
#118=EDGE_LOOP('',(#520,#521,#522,#523));
#119=EDGE_LOOP('',(#524,#525,#526,#527));
#120=EDGE_LOOP('',(#528,#529,#530));
#121=EDGE_LOOP('',(#531,#532,#533,#534));
#122=EDGE_LOOP('',(#535,#536,#537));
#123=EDGE_LOOP('',(#538,#539,#540,#541));
#124=EDGE_LOOP('',(#542,#543,#544));
#125=EDGE_LOOP('',(#545,#546,#547));
#126=EDGE_LOOP('',(#548,#549,#550,#551));
#127=EDGE_LOOP('',(#552,#553,#554,#555));
#128=EDGE_LOOP('',(#556,#557,#558,#559));
#129=EDGE_LOOP('',(#560,#561));
#130=EDGE_LOOP('',(#562));
#131=EDGE_LOOP('',(#563));
#132=EDGE_LOOP('',(#564,#565,#566,#567));
#133=EDGE_LOOP('',(#568));
#134=EDGE_LOOP('',(#569));
#135=EDGE_LOOP('',(#570,#571,#572,#573));
#136=EDGE_LOOP('',(#574,#575));
#137=EDGE_LOOP('',(#576));
#138=EDGE_LOOP('',(#577));
#139=EDGE_LOOP('',(#578,#579,#580,#581));
#140=EDGE_LOOP('',(#582));
#141=EDGE_LOOP('',(#583));
#142=EDGE_LOOP('',(#584,#585,#586,#587,#588));
#143=EDGE_LOOP('',(#589));
#144=EDGE_LOOP('',(#590));
#145=EDGE_LOOP('',(#591,#592,#593,#594,#595,#596));
#146=EDGE_LOOP('',(#597,#598,#599,#600,#601));
#147=EDGE_LOOP('',(#602,#603,#604,#605,#606,#607));
#148=EDGE_LOOP('',(#608,#609,#610,#611,#612));
#149=EDGE_LOOP('',(#613));
#150=EDGE_LOOP('',(#614));
#151=EDGE_LOOP('',(#615,#616,#617,#618,#619,#620));
#152=EDGE_LOOP('',(#621,#622,#623,#624,#625));
#153=EDGE_LOOP('',(#626,#627,#628,#629,#630,#631));
#154=EDGE_LOOP('',(#632,#633,#634,#635,#636));
#155=EDGE_LOOP('',(#637));
#156=EDGE_LOOP('',(#638));
#157=EDGE_LOOP('',(#639,#640,#641,#642,#643,#644));
#158=EDGE_LOOP('',(#645,#646,#647,#648,#649));
#159=EDGE_LOOP('',(#650));
#160=EDGE_LOOP('',(#651));
#161=EDGE_LOOP('',(#652,#653,#654,#655,#656,#657));
#162=EDGE_LOOP('',(#658,#659,#660,#661,#662));
#163=EDGE_LOOP('',(#663,#664,#665,#666,#667,#668));
#164=EDGE_LOOP('',(#669,#670,#671,#672,#673));
#165=EDGE_LOOP('',(#674,#675,#676,#677,#678,#679));
#166=EDGE_LOOP('',(#680,#681,#682,#683,#684));
#167=EDGE_LOOP('',(#685,#686,#687,#688,#689));
#168=EDGE_LOOP('',(#690,#691,#692,#693,#694));
#169=EDGE_LOOP('',(#695,#696,#697,#698,#699));
#170=EDGE_LOOP('',(#700,#701,#702,#703));
#171=EDGE_LOOP('',(#704,#705,#706,#707));
#172=EDGE_LOOP('',(#708,#709,#710,#711,#712));
#173=EDGE_LOOP('',(#713,#714,#715,#716,#717));
#174=EDGE_LOOP('',(#718,#719,#720,#721,#722));
#175=EDGE_LOOP('',(#723,#724,#725,#726,#727));
#176=EDGE_LOOP('',(#728,#729,#730,#731));
#177=EDGE_LOOP('',(#732,#733,#734,#735));
#178=EDGE_LOOP('',(#736,#737,#738,#739));
#179=EDGE_LOOP('',(#740,#741,#742,#743));
#180=EDGE_LOOP('',(#744,#745,#746,#747,#748));
#181=EDGE_LOOP('',(#749,#750,#751,#752));
#182=EDGE_LOOP('',(#753,#754,#755,#756,#757));
#183=LINE('',#1300,#212);
#184=LINE('',#1303,#213);
#185=LINE('',#1318,#214);
#186=LINE('',#1321,#215);
#187=LINE('',#1349,#216);
#188=LINE('',#1351,#217);
#189=LINE('',#1353,#218);
#190=LINE('',#1354,#219);
#191=LINE('',#1367,#220);
#192=LINE('',#1369,#221);
#193=LINE('',#1371,#222);
#194=LINE('',#1372,#223);
#195=LINE('',#1392,#224);
#196=LINE('',#1402,#225);
#197=LINE('',#1421,#226);
#198=LINE('',#1431,#227);
#199=LINE('',#1448,#228);
#200=LINE('',#1465,#229);
#201=LINE('',#1479,#230);
#202=LINE('',#1491,#231);
#203=LINE('',#1505,#232);
#204=LINE('',#1509,#233);
#205=LINE('',#1511,#234);
#206=LINE('',#1512,#235);
#207=LINE('',#1525,#236);
#208=LINE('',#1529,#237);
#209=LINE('',#1533,#238);
#210=LINE('',#1535,#239);
#211=LINE('',#1537,#240);
#212=VECTOR('',#987,10.);
#213=VECTOR('',#990,10.);
#214=VECTOR('',#1009,10.);
#215=VECTOR('',#1012,10.);
#216=VECTOR('',#1055,10.);
#217=VECTOR('',#1056,10.);
#218=VECTOR('',#1057,10.);
#219=VECTOR('',#1058,10.);
#220=VECTOR('',#1071,10.);
#221=VECTOR('',#1072,10.);
#222=VECTOR('',#1073,10.);
#223=VECTOR('',#1074,10.);
#224=VECTOR('',#1097,2.66);
#225=VECTOR('',#1110,1.4);
#226=VECTOR('',#1133,2.66);
#227=VECTOR('',#1146,1.4);
#228=VECTOR('',#1167,1.4);
#229=VECTOR('',#1188,1.4);
#230=VECTOR('',#1205,2.66);
#231=VECTOR('',#1220,2.66);
#232=VECTOR('',#1243,10.);
#233=VECTOR('',#1248,10.);
#234=VECTOR('',#1249,10.);
#235=VECTOR('',#1250,10.);
#236=VECTOR('',#1271,10.);
#237=VECTOR('',#1278,10.);
#238=VECTOR('',#1285,10.);
#239=VECTOR('',#1288,10.);
#240=VECTOR('',#1291,10.);
#241=CIRCLE('',#841,0.200000000000001);
#242=CIRCLE('',#842,0.200000000000004);
#243=CIRCLE('',#844,0.2);
#244=CIRCLE('',#845,3.1);
#245=CIRCLE('',#846,0.2);
#246=CIRCLE('',#847,3.3);
#247=CIRCLE('',#849,0.2);
#248=CIRCLE('',#851,0.200000000000001);
#249=CIRCLE('',#852,0.200000000000004);
#250=CIRCLE('',#854,0.2);
#251=CIRCLE('',#856,0.2);
#252=CIRCLE('',#857,3.1);
#253=CIRCLE('',#858,0.2);
#254=CIRCLE('',#859,3.3);
#255=CIRCLE('',#861,0.2);
#256=CIRCLE('',#863,0.2);
#257=CIRCLE('',#865,14.9);
#258=CIRCLE('',#866,14.7);
#259=CIRCLE('',#868,14.9);
#260=CIRCLE('',#870,14.7);
#261=CIRCLE('',#872,1.6);
#262=CIRCLE('',#873,1.6);
#263=CIRCLE('',#874,1.6);
#264=CIRCLE('',#875,1.6);
#265=CIRCLE('',#878,2.86);
#266=CIRCLE('',#879,2.86);
#267=CIRCLE('',#880,2.86);
#268=CIRCLE('',#881,2.86);
#269=CIRCLE('',#883,2.36);
#270=CIRCLE('',#884,0.3);
#271=CIRCLE('',#885,2.66);
#272=CIRCLE('',#886,2.66);
#273=CIRCLE('',#888,1.7);
#274=CIRCLE('',#890,2.66);
#275=CIRCLE('',#891,2.66);
#276=CIRCLE('',#893,1.4);
#277=CIRCLE('',#894,0.3);
#278=CIRCLE('',#895,1.4);
#279=CIRCLE('',#897,1.4);
#280=CIRCLE('',#898,1.4);
#281=CIRCLE('',#900,2.36);
#282=CIRCLE('',#901,0.3);
#283=CIRCLE('',#902,2.66);
#284=CIRCLE('',#903,2.66);
#285=CIRCLE('',#905,1.7);
#286=CIRCLE('',#907,2.66);
#287=CIRCLE('',#908,2.66);
#288=CIRCLE('',#910,1.4);
#289=CIRCLE('',#911,0.3);
#290=CIRCLE('',#912,1.4);
#291=CIRCLE('',#914,1.4);
#292=CIRCLE('',#915,1.4);
#293=CIRCLE('',#917,1.4);
#294=CIRCLE('',#918,0.3);
#295=CIRCLE('',#919,1.7);
#296=CIRCLE('',#920,1.4);
#297=CIRCLE('',#922,2.36);
#298=CIRCLE('',#924,1.4);
#299=CIRCLE('',#925,1.4);
#300=CIRCLE('',#927,1.4);
#301=CIRCLE('',#928,0.3);
#302=CIRCLE('',#929,1.7);
#303=CIRCLE('',#930,1.4);
#304=CIRCLE('',#932,2.36);
#305=CIRCLE('',#934,1.4);
#306=CIRCLE('',#935,1.4);
#307=CIRCLE('',#937,0.3);
#308=CIRCLE('',#938,2.66);
#309=CIRCLE('',#939,2.66);
#310=CIRCLE('',#941,2.66);
#311=CIRCLE('',#942,2.66);
#312=CIRCLE('',#944,0.3);
#313=CIRCLE('',#945,2.66);
#314=CIRCLE('',#946,2.66);
#315=CIRCLE('',#948,2.66);
#316=CIRCLE('',#949,2.66);
#317=CIRCLE('',#951,0.2);
#318=CIRCLE('',#953,0.2);
#319=CIRCLE('',#955,0.2);
#320=CIRCLE('',#957,0.2);
#321=CIRCLE('',#959,0.2);
#322=CIRCLE('',#960,0.2);
#323=CIRCLE('',#963,0.2);
#324=CIRCLE('',#965,0.2);
#325=CIRCLE('',#967,0.2);
#326=CIRCLE('',#969,0.2);
#327=VERTEX_POINT('',#1296);
#328=VERTEX_POINT('',#1297);
#329=VERTEX_POINT('',#1299);
#330=VERTEX_POINT('',#1301);
#331=VERTEX_POINT('',#1305);
#332=VERTEX_POINT('',#1307);
#333=VERTEX_POINT('',#1309);
#334=VERTEX_POINT('',#1315);
#335=VERTEX_POINT('',#1317);
#336=VERTEX_POINT('',#1319);
#337=VERTEX_POINT('',#1325);
#338=VERTEX_POINT('',#1328);
#339=VERTEX_POINT('',#1343);
#340=VERTEX_POINT('',#1345);
#341=VERTEX_POINT('',#1347);
#342=VERTEX_POINT('',#1348);
#343=VERTEX_POINT('',#1350);
#344=VERTEX_POINT('',#1352);
#345=VERTEX_POINT('',#1355);
#346=VERTEX_POINT('',#1357);
#347=VERTEX_POINT('',#1361);
#348=VERTEX_POINT('',#1363);
#349=VERTEX_POINT('',#1365);
#350=VERTEX_POINT('',#1366);
#351=VERTEX_POINT('',#1368);
#352=VERTEX_POINT('',#1370);
#353=VERTEX_POINT('',#1373);
#354=VERTEX_POINT('',#1375);
#355=VERTEX_POINT('',#1378);
#356=VERTEX_POINT('',#1380);
#357=VERTEX_POINT('',#1382);
#358=VERTEX_POINT('',#1386);
#359=VERTEX_POINT('',#1389);
#360=VERTEX_POINT('',#1390);
#361=VERTEX_POINT('',#1395);
#362=VERTEX_POINT('',#1396);
#363=VERTEX_POINT('',#1401);
#364=VERTEX_POINT('',#1403);
#365=VERTEX_POINT('',#1407);
#366=VERTEX_POINT('',#1409);
#367=VERTEX_POINT('',#1411);
#368=VERTEX_POINT('',#1415);
#369=VERTEX_POINT('',#1418);
#370=VERTEX_POINT('',#1419);
#371=VERTEX_POINT('',#1424);
#372=VERTEX_POINT('',#1425);
#373=VERTEX_POINT('',#1430);
#374=VERTEX_POINT('',#1432);
#375=VERTEX_POINT('',#1436);
#376=VERTEX_POINT('',#1437);
#377=VERTEX_POINT('',#1439);
#378=VERTEX_POINT('',#1444);
#379=VERTEX_POINT('',#1447);
#380=VERTEX_POINT('',#1449);
#381=VERTEX_POINT('',#1453);
#382=VERTEX_POINT('',#1454);
#383=VERTEX_POINT('',#1456);
#384=VERTEX_POINT('',#1461);
#385=VERTEX_POINT('',#1464);
#386=VERTEX_POINT('',#1466);
#387=VERTEX_POINT('',#1470);
#388=VERTEX_POINT('',#1472);
#389=VERTEX_POINT('',#1476);
#390=VERTEX_POINT('',#1477);
#391=VERTEX_POINT('',#1482);
#392=VERTEX_POINT('',#1484);
#393=VERTEX_POINT('',#1488);
#394=VERTEX_POINT('',#1489);
#395=VERTEX_POINT('',#1502);
#396=VERTEX_POINT('',#1504);
#397=VERTEX_POINT('',#1508);
#398=VERTEX_POINT('',#1510);
#399=VERTEX_POINT('',#1522);
#400=VERTEX_POINT('',#1524);
#401=EDGE_CURVE('',#327,#328,#241,.T.);
#402=EDGE_CURVE('',#328,#329,#183,.T.);
#403=EDGE_CURVE('',#329,#330,#242,.T.);
#404=EDGE_CURVE('',#330,#327,#184,.T.);
#405=EDGE_CURVE('',#331,#329,#243,.T.);
#406=EDGE_CURVE('',#329,#332,#244,.T.);
#407=EDGE_CURVE('',#332,#333,#245,.T.);
#408=EDGE_CURVE('',#333,#331,#246,.T.);
#409=EDGE_CURVE('',#331,#330,#247,.T.);
#410=EDGE_CURVE('',#334,#332,#248,.T.);
#411=EDGE_CURVE('',#332,#335,#185,.T.);
#412=EDGE_CURVE('',#335,#336,#249,.T.);
#413=EDGE_CURVE('',#336,#334,#186,.T.);
#414=EDGE_CURVE('',#334,#333,#250,.T.);
#415=EDGE_CURVE('',#337,#335,#251,.T.);
#416=EDGE_CURVE('',#335,#328,#252,.T.);
#417=EDGE_CURVE('',#328,#338,#253,.T.);
#418=EDGE_CURVE('',#338,#337,#254,.T.);
#419=EDGE_CURVE('',#337,#336,#255,.T.);
#420=EDGE_CURVE('',#327,#338,#256,.T.);
#421=EDGE_CURVE('',#334,#330,#257,.T.);
#422=EDGE_CURVE('',#331,#333,#258,.T.);
#423=EDGE_CURVE('',#327,#336,#259,.T.);
#424=EDGE_CURVE('',#337,#338,#260,.T.);
#425=EDGE_CURVE('',#339,#339,#261,.T.);
#426=EDGE_CURVE('',#340,#340,#262,.T.);
#427=EDGE_CURVE('',#341,#342,#187,.T.);
#428=EDGE_CURVE('',#342,#343,#188,.T.);
#429=EDGE_CURVE('',#343,#344,#189,.T.);
#430=EDGE_CURVE('',#341,#344,#190,.T.);
#431=EDGE_CURVE('',#345,#345,#263,.T.);
#432=EDGE_CURVE('',#346,#346,#264,.T.);
#433=EDGE_CURVE('',#347,#347,#265,.T.);
#434=EDGE_CURVE('',#348,#348,#266,.T.);
#435=EDGE_CURVE('',#349,#350,#191,.T.);
#436=EDGE_CURVE('',#351,#349,#192,.T.);
#437=EDGE_CURVE('',#352,#351,#193,.T.);
#438=EDGE_CURVE('',#350,#352,#194,.T.);
#439=EDGE_CURVE('',#353,#353,#267,.T.);
#440=EDGE_CURVE('',#354,#354,#268,.T.);
#441=EDGE_CURVE('',#355,#355,#269,.T.);
#442=EDGE_CURVE('',#355,#356,#270,.T.);
#443=EDGE_CURVE('',#356,#357,#271,.T.);
#444=EDGE_CURVE('',#357,#356,#272,.T.);
#445=EDGE_CURVE('',#358,#358,#273,.T.);
#446=EDGE_CURVE('',#359,#360,#274,.T.);
#447=EDGE_CURVE('',#359,#357,#195,.T.);
#448=EDGE_CURVE('',#360,#359,#275,.T.);
#449=EDGE_CURVE('',#361,#362,#276,.T.);
#450=EDGE_CURVE('',#362,#358,#277,.T.);
#451=EDGE_CURVE('',#362,#361,#278,.T.);
#452=EDGE_CURVE('',#361,#363,#196,.T.);
#453=EDGE_CURVE('',#364,#363,#279,.T.);
#454=EDGE_CURVE('',#363,#364,#280,.T.);
#455=EDGE_CURVE('',#365,#365,#281,.T.);
#456=EDGE_CURVE('',#365,#366,#282,.T.);
#457=EDGE_CURVE('',#366,#367,#283,.T.);
#458=EDGE_CURVE('',#367,#366,#284,.T.);
#459=EDGE_CURVE('',#368,#368,#285,.T.);
#460=EDGE_CURVE('',#369,#370,#286,.T.);
#461=EDGE_CURVE('',#369,#367,#197,.T.);
#462=EDGE_CURVE('',#370,#369,#287,.T.);
#463=EDGE_CURVE('',#371,#372,#288,.T.);
#464=EDGE_CURVE('',#372,#368,#289,.T.);
#465=EDGE_CURVE('',#372,#371,#290,.T.);
#466=EDGE_CURVE('',#371,#373,#198,.T.);
#467=EDGE_CURVE('',#374,#373,#291,.T.);
#468=EDGE_CURVE('',#373,#374,#292,.T.);
#469=EDGE_CURVE('',#375,#376,#293,.T.);
#470=EDGE_CURVE('',#376,#377,#294,.T.);
#471=EDGE_CURVE('',#377,#377,#295,.T.);
#472=EDGE_CURVE('',#376,#375,#296,.T.);
#473=EDGE_CURVE('',#378,#378,#297,.T.);
#474=EDGE_CURVE('',#375,#379,#199,.T.);
#475=EDGE_CURVE('',#380,#379,#298,.T.);
#476=EDGE_CURVE('',#379,#380,#299,.T.);
#477=EDGE_CURVE('',#381,#382,#300,.T.);
#478=EDGE_CURVE('',#382,#383,#301,.T.);
#479=EDGE_CURVE('',#383,#383,#302,.T.);
#480=EDGE_CURVE('',#382,#381,#303,.T.);
#481=EDGE_CURVE('',#384,#384,#304,.T.);
#482=EDGE_CURVE('',#381,#385,#200,.T.);
#483=EDGE_CURVE('',#386,#385,#305,.T.);
#484=EDGE_CURVE('',#385,#386,#306,.T.);
#485=EDGE_CURVE('',#384,#387,#307,.T.);
#486=EDGE_CURVE('',#387,#388,#308,.T.);
#487=EDGE_CURVE('',#388,#387,#309,.T.);
#488=EDGE_CURVE('',#389,#390,#310,.T.);
#489=EDGE_CURVE('',#389,#388,#201,.T.);
#490=EDGE_CURVE('',#390,#389,#311,.T.);
#491=EDGE_CURVE('',#378,#391,#312,.T.);
#492=EDGE_CURVE('',#391,#392,#313,.T.);
#493=EDGE_CURVE('',#392,#391,#314,.T.);
#494=EDGE_CURVE('',#393,#394,#315,.T.);
#495=EDGE_CURVE('',#393,#392,#202,.T.);
#496=EDGE_CURVE('',#394,#393,#316,.T.);
#497=EDGE_CURVE('',#386,#339,#317,.T.);
#498=EDGE_CURVE('',#374,#346,#318,.T.);
#499=EDGE_CURVE('',#364,#340,#319,.T.);
#500=EDGE_CURVE('',#380,#345,#320,.T.);
#501=EDGE_CURVE('',#344,#395,#321,.F.);
#502=EDGE_CURVE('',#395,#396,#203,.T.);
#503=EDGE_CURVE('',#396,#341,#322,.F.);
#504=EDGE_CURVE('',#397,#395,#204,.T.);
#505=EDGE_CURVE('',#398,#397,#205,.T.);
#506=EDGE_CURVE('',#398,#396,#206,.T.);
#507=EDGE_CURVE('',#354,#370,#323,.T.);
#508=EDGE_CURVE('',#347,#360,#324,.T.);
#509=EDGE_CURVE('',#353,#394,#325,.T.);
#510=EDGE_CURVE('',#348,#390,#326,.T.);
#511=EDGE_CURVE('',#350,#399,#15,.T.);
#512=EDGE_CURVE('',#399,#400,#207,.T.);
#513=EDGE_CURVE('',#400,#349,#16,.T.);
#514=EDGE_CURVE('',#352,#397,#17,.T.);
#515=EDGE_CURVE('',#397,#399,#208,.T.);
#516=EDGE_CURVE('',#351,#398,#18,.T.);
#517=EDGE_CURVE('',#400,#398,#209,.T.);
#518=EDGE_CURVE('',#400,#342,#210,.T.);
#519=EDGE_CURVE('',#399,#343,#211,.T.);
#520=ORIENTED_EDGE('',*,*,#401,.T.);
#521=ORIENTED_EDGE('',*,*,#402,.T.);
#522=ORIENTED_EDGE('',*,*,#403,.T.);
#523=ORIENTED_EDGE('',*,*,#404,.T.);
#524=ORIENTED_EDGE('',*,*,#405,.T.);
#525=ORIENTED_EDGE('',*,*,#406,.T.);
#526=ORIENTED_EDGE('',*,*,#407,.T.);
#527=ORIENTED_EDGE('',*,*,#408,.T.);
#528=ORIENTED_EDGE('',*,*,#405,.F.);
#529=ORIENTED_EDGE('',*,*,#409,.T.);
#530=ORIENTED_EDGE('',*,*,#403,.F.);
#531=ORIENTED_EDGE('',*,*,#410,.T.);
#532=ORIENTED_EDGE('',*,*,#411,.T.);
#533=ORIENTED_EDGE('',*,*,#412,.T.);
#534=ORIENTED_EDGE('',*,*,#413,.T.);
#535=ORIENTED_EDGE('',*,*,#410,.F.);
#536=ORIENTED_EDGE('',*,*,#414,.T.);
#537=ORIENTED_EDGE('',*,*,#407,.F.);
#538=ORIENTED_EDGE('',*,*,#415,.T.);
#539=ORIENTED_EDGE('',*,*,#416,.T.);
#540=ORIENTED_EDGE('',*,*,#417,.T.);
#541=ORIENTED_EDGE('',*,*,#418,.T.);
#542=ORIENTED_EDGE('',*,*,#415,.F.);
#543=ORIENTED_EDGE('',*,*,#419,.T.);
#544=ORIENTED_EDGE('',*,*,#412,.F.);
#545=ORIENTED_EDGE('',*,*,#401,.F.);
#546=ORIENTED_EDGE('',*,*,#420,.T.);
#547=ORIENTED_EDGE('',*,*,#417,.F.);
#548=ORIENTED_EDGE('',*,*,#414,.F.);
#549=ORIENTED_EDGE('',*,*,#421,.T.);
#550=ORIENTED_EDGE('',*,*,#409,.F.);
#551=ORIENTED_EDGE('',*,*,#422,.T.);
#552=ORIENTED_EDGE('',*,*,#413,.F.);
#553=ORIENTED_EDGE('',*,*,#423,.F.);
#554=ORIENTED_EDGE('',*,*,#404,.F.);
#555=ORIENTED_EDGE('',*,*,#421,.F.);
#556=ORIENTED_EDGE('',*,*,#419,.F.);
#557=ORIENTED_EDGE('',*,*,#424,.T.);
#558=ORIENTED_EDGE('',*,*,#420,.F.);
#559=ORIENTED_EDGE('',*,*,#423,.T.);
#560=ORIENTED_EDGE('',*,*,#418,.F.);
#561=ORIENTED_EDGE('',*,*,#424,.F.);
#562=ORIENTED_EDGE('',*,*,#425,.F.);
#563=ORIENTED_EDGE('',*,*,#426,.F.);
#564=ORIENTED_EDGE('',*,*,#427,.T.);
#565=ORIENTED_EDGE('',*,*,#428,.T.);
#566=ORIENTED_EDGE('',*,*,#429,.T.);
#567=ORIENTED_EDGE('',*,*,#430,.F.);
#568=ORIENTED_EDGE('',*,*,#431,.F.);
#569=ORIENTED_EDGE('',*,*,#432,.F.);
#570=ORIENTED_EDGE('',*,*,#402,.F.);
#571=ORIENTED_EDGE('',*,*,#416,.F.);
#572=ORIENTED_EDGE('',*,*,#411,.F.);
#573=ORIENTED_EDGE('',*,*,#406,.F.);
#574=ORIENTED_EDGE('',*,*,#408,.F.);
#575=ORIENTED_EDGE('',*,*,#422,.F.);
#576=ORIENTED_EDGE('',*,*,#433,.F.);
#577=ORIENTED_EDGE('',*,*,#434,.F.);
#578=ORIENTED_EDGE('',*,*,#435,.F.);
#579=ORIENTED_EDGE('',*,*,#436,.F.);
#580=ORIENTED_EDGE('',*,*,#437,.F.);
#581=ORIENTED_EDGE('',*,*,#438,.F.);
#582=ORIENTED_EDGE('',*,*,#439,.F.);
#583=ORIENTED_EDGE('',*,*,#440,.F.);
#584=ORIENTED_EDGE('',*,*,#441,.T.);
#585=ORIENTED_EDGE('',*,*,#442,.T.);
#586=ORIENTED_EDGE('',*,*,#443,.T.);
#587=ORIENTED_EDGE('',*,*,#444,.T.);
#588=ORIENTED_EDGE('',*,*,#442,.F.);
#589=ORIENTED_EDGE('',*,*,#441,.F.);
#590=ORIENTED_EDGE('',*,*,#445,.F.);
#591=ORIENTED_EDGE('',*,*,#446,.F.);
#592=ORIENTED_EDGE('',*,*,#447,.T.);
#593=ORIENTED_EDGE('',*,*,#443,.F.);
#594=ORIENTED_EDGE('',*,*,#444,.F.);
#595=ORIENTED_EDGE('',*,*,#447,.F.);
#596=ORIENTED_EDGE('',*,*,#448,.F.);
#597=ORIENTED_EDGE('',*,*,#449,.T.);
#598=ORIENTED_EDGE('',*,*,#450,.T.);
#599=ORIENTED_EDGE('',*,*,#445,.T.);
#600=ORIENTED_EDGE('',*,*,#450,.F.);
#601=ORIENTED_EDGE('',*,*,#451,.T.);
#602=ORIENTED_EDGE('',*,*,#449,.F.);
#603=ORIENTED_EDGE('',*,*,#452,.T.);
#604=ORIENTED_EDGE('',*,*,#453,.F.);
#605=ORIENTED_EDGE('',*,*,#454,.F.);
#606=ORIENTED_EDGE('',*,*,#452,.F.);
#607=ORIENTED_EDGE('',*,*,#451,.F.);
#608=ORIENTED_EDGE('',*,*,#455,.T.);
#609=ORIENTED_EDGE('',*,*,#456,.T.);
#610=ORIENTED_EDGE('',*,*,#457,.T.);
#611=ORIENTED_EDGE('',*,*,#458,.T.);
#612=ORIENTED_EDGE('',*,*,#456,.F.);
#613=ORIENTED_EDGE('',*,*,#455,.F.);
#614=ORIENTED_EDGE('',*,*,#459,.F.);
#615=ORIENTED_EDGE('',*,*,#460,.F.);
#616=ORIENTED_EDGE('',*,*,#461,.T.);
#617=ORIENTED_EDGE('',*,*,#457,.F.);
#618=ORIENTED_EDGE('',*,*,#458,.F.);
#619=ORIENTED_EDGE('',*,*,#461,.F.);
#620=ORIENTED_EDGE('',*,*,#462,.F.);
#621=ORIENTED_EDGE('',*,*,#463,.T.);
#622=ORIENTED_EDGE('',*,*,#464,.T.);
#623=ORIENTED_EDGE('',*,*,#459,.T.);
#624=ORIENTED_EDGE('',*,*,#464,.F.);
#625=ORIENTED_EDGE('',*,*,#465,.T.);
#626=ORIENTED_EDGE('',*,*,#463,.F.);
#627=ORIENTED_EDGE('',*,*,#466,.T.);
#628=ORIENTED_EDGE('',*,*,#467,.F.);
#629=ORIENTED_EDGE('',*,*,#468,.F.);
#630=ORIENTED_EDGE('',*,*,#466,.F.);
#631=ORIENTED_EDGE('',*,*,#465,.F.);
#632=ORIENTED_EDGE('',*,*,#469,.T.);
#633=ORIENTED_EDGE('',*,*,#470,.T.);
#634=ORIENTED_EDGE('',*,*,#471,.T.);
#635=ORIENTED_EDGE('',*,*,#470,.F.);
#636=ORIENTED_EDGE('',*,*,#472,.T.);
#637=ORIENTED_EDGE('',*,*,#473,.F.);
#638=ORIENTED_EDGE('',*,*,#471,.F.);
#639=ORIENTED_EDGE('',*,*,#469,.F.);
#640=ORIENTED_EDGE('',*,*,#474,.T.);
#641=ORIENTED_EDGE('',*,*,#475,.F.);
#642=ORIENTED_EDGE('',*,*,#476,.F.);
#643=ORIENTED_EDGE('',*,*,#474,.F.);
#644=ORIENTED_EDGE('',*,*,#472,.F.);
#645=ORIENTED_EDGE('',*,*,#477,.T.);
#646=ORIENTED_EDGE('',*,*,#478,.T.);
#647=ORIENTED_EDGE('',*,*,#479,.T.);
#648=ORIENTED_EDGE('',*,*,#478,.F.);
#649=ORIENTED_EDGE('',*,*,#480,.T.);
#650=ORIENTED_EDGE('',*,*,#481,.F.);
#651=ORIENTED_EDGE('',*,*,#479,.F.);
#652=ORIENTED_EDGE('',*,*,#477,.F.);
#653=ORIENTED_EDGE('',*,*,#482,.T.);
#654=ORIENTED_EDGE('',*,*,#483,.F.);
#655=ORIENTED_EDGE('',*,*,#484,.F.);
#656=ORIENTED_EDGE('',*,*,#482,.F.);
#657=ORIENTED_EDGE('',*,*,#480,.F.);
#658=ORIENTED_EDGE('',*,*,#481,.T.);
#659=ORIENTED_EDGE('',*,*,#485,.T.);
#660=ORIENTED_EDGE('',*,*,#486,.T.);
#661=ORIENTED_EDGE('',*,*,#487,.T.);
#662=ORIENTED_EDGE('',*,*,#485,.F.);
#663=ORIENTED_EDGE('',*,*,#488,.F.);
#664=ORIENTED_EDGE('',*,*,#489,.T.);
#665=ORIENTED_EDGE('',*,*,#486,.F.);
#666=ORIENTED_EDGE('',*,*,#487,.F.);
#667=ORIENTED_EDGE('',*,*,#489,.F.);
#668=ORIENTED_EDGE('',*,*,#490,.F.);
#669=ORIENTED_EDGE('',*,*,#473,.T.);
#670=ORIENTED_EDGE('',*,*,#491,.T.);
#671=ORIENTED_EDGE('',*,*,#492,.T.);
#672=ORIENTED_EDGE('',*,*,#493,.T.);
#673=ORIENTED_EDGE('',*,*,#491,.F.);
#674=ORIENTED_EDGE('',*,*,#494,.F.);
#675=ORIENTED_EDGE('',*,*,#495,.T.);
#676=ORIENTED_EDGE('',*,*,#492,.F.);
#677=ORIENTED_EDGE('',*,*,#493,.F.);
#678=ORIENTED_EDGE('',*,*,#495,.F.);
#679=ORIENTED_EDGE('',*,*,#496,.F.);
#680=ORIENTED_EDGE('',*,*,#484,.T.);
#681=ORIENTED_EDGE('',*,*,#497,.T.);
#682=ORIENTED_EDGE('',*,*,#425,.T.);
#683=ORIENTED_EDGE('',*,*,#497,.F.);
#684=ORIENTED_EDGE('',*,*,#483,.T.);
#685=ORIENTED_EDGE('',*,*,#468,.T.);
#686=ORIENTED_EDGE('',*,*,#498,.T.);
#687=ORIENTED_EDGE('',*,*,#432,.T.);
#688=ORIENTED_EDGE('',*,*,#498,.F.);
#689=ORIENTED_EDGE('',*,*,#467,.T.);
#690=ORIENTED_EDGE('',*,*,#454,.T.);
#691=ORIENTED_EDGE('',*,*,#499,.T.);
#692=ORIENTED_EDGE('',*,*,#426,.T.);
#693=ORIENTED_EDGE('',*,*,#499,.F.);
#694=ORIENTED_EDGE('',*,*,#453,.T.);
#695=ORIENTED_EDGE('',*,*,#476,.T.);
#696=ORIENTED_EDGE('',*,*,#500,.T.);
#697=ORIENTED_EDGE('',*,*,#431,.T.);
#698=ORIENTED_EDGE('',*,*,#500,.F.);
#699=ORIENTED_EDGE('',*,*,#475,.T.);
#700=ORIENTED_EDGE('',*,*,#501,.T.);
#701=ORIENTED_EDGE('',*,*,#502,.T.);
#702=ORIENTED_EDGE('',*,*,#503,.T.);
#703=ORIENTED_EDGE('',*,*,#430,.T.);
#704=ORIENTED_EDGE('',*,*,#502,.F.);
#705=ORIENTED_EDGE('',*,*,#504,.F.);
#706=ORIENTED_EDGE('',*,*,#505,.F.);
#707=ORIENTED_EDGE('',*,*,#506,.T.);
#708=ORIENTED_EDGE('',*,*,#440,.T.);
#709=ORIENTED_EDGE('',*,*,#507,.T.);
#710=ORIENTED_EDGE('',*,*,#462,.T.);
#711=ORIENTED_EDGE('',*,*,#460,.T.);
#712=ORIENTED_EDGE('',*,*,#507,.F.);
#713=ORIENTED_EDGE('',*,*,#433,.T.);
#714=ORIENTED_EDGE('',*,*,#508,.T.);
#715=ORIENTED_EDGE('',*,*,#448,.T.);
#716=ORIENTED_EDGE('',*,*,#446,.T.);
#717=ORIENTED_EDGE('',*,*,#508,.F.);
#718=ORIENTED_EDGE('',*,*,#439,.T.);
#719=ORIENTED_EDGE('',*,*,#509,.T.);
#720=ORIENTED_EDGE('',*,*,#496,.T.);
#721=ORIENTED_EDGE('',*,*,#494,.T.);
#722=ORIENTED_EDGE('',*,*,#509,.F.);
#723=ORIENTED_EDGE('',*,*,#434,.T.);
#724=ORIENTED_EDGE('',*,*,#510,.T.);
#725=ORIENTED_EDGE('',*,*,#490,.T.);
#726=ORIENTED_EDGE('',*,*,#488,.T.);
#727=ORIENTED_EDGE('',*,*,#510,.F.);
#728=ORIENTED_EDGE('',*,*,#435,.T.);
#729=ORIENTED_EDGE('',*,*,#511,.T.);
#730=ORIENTED_EDGE('',*,*,#512,.T.);
#731=ORIENTED_EDGE('',*,*,#513,.T.);
#732=ORIENTED_EDGE('',*,*,#438,.T.);
#733=ORIENTED_EDGE('',*,*,#514,.T.);
#734=ORIENTED_EDGE('',*,*,#515,.T.);
#735=ORIENTED_EDGE('',*,*,#511,.F.);
#736=ORIENTED_EDGE('',*,*,#505,.T.);
#737=ORIENTED_EDGE('',*,*,#514,.F.);
#738=ORIENTED_EDGE('',*,*,#437,.T.);
#739=ORIENTED_EDGE('',*,*,#516,.T.);
#740=ORIENTED_EDGE('',*,*,#436,.T.);
#741=ORIENTED_EDGE('',*,*,#513,.F.);
#742=ORIENTED_EDGE('',*,*,#517,.T.);
#743=ORIENTED_EDGE('',*,*,#516,.F.);
#744=ORIENTED_EDGE('',*,*,#517,.F.);
#745=ORIENTED_EDGE('',*,*,#518,.T.);
#746=ORIENTED_EDGE('',*,*,#427,.F.);
#747=ORIENTED_EDGE('',*,*,#503,.F.);
#748=ORIENTED_EDGE('',*,*,#506,.F.);
#749=ORIENTED_EDGE('',*,*,#512,.F.);
#750=ORIENTED_EDGE('',*,*,#519,.T.);
#751=ORIENTED_EDGE('',*,*,#428,.F.);
#752=ORIENTED_EDGE('',*,*,#518,.F.);
#753=ORIENTED_EDGE('',*,*,#515,.F.);
#754=ORIENTED_EDGE('',*,*,#504,.T.);
#755=ORIENTED_EDGE('',*,*,#501,.F.);
#756=ORIENTED_EDGE('',*,*,#429,.F.);
#757=ORIENTED_EDGE('',*,*,#519,.F.);
#758=CYLINDRICAL_SURFACE('',#840,0.2);
#759=CYLINDRICAL_SURFACE('',#850,0.2);
#760=CYLINDRICAL_SURFACE('',#867,14.9);
#761=CYLINDRICAL_SURFACE('',#876,3.1);
#762=CYLINDRICAL_SURFACE('',#889,2.66);
#763=CYLINDRICAL_SURFACE('',#896,1.4);
#764=CYLINDRICAL_SURFACE('',#906,2.66);
#765=CYLINDRICAL_SURFACE('',#913,1.4);
#766=CYLINDRICAL_SURFACE('',#923,1.4);
#767=CYLINDRICAL_SURFACE('',#933,1.4);
#768=CYLINDRICAL_SURFACE('',#940,2.66);
#769=CYLINDRICAL_SURFACE('',#947,2.66);
#770=CYLINDRICAL_SURFACE('',#958,0.2);
#771=CYLINDRICAL_SURFACE('',#970,0.2);
#772=CYLINDRICAL_SURFACE('',#973,0.2);
#773=CYLINDRICAL_SURFACE('',#975,0.2);
#774=CYLINDRICAL_SURFACE('',#977,0.2);
#775=ADVANCED_FACE('',(#67),#758,.T.);
#776=ADVANCED_FACE('',(#68),#47,.T.);
#777=ADVANCED_FACE('',(#69),#43,.T.);
#778=ADVANCED_FACE('',(#70),#759,.T.);
#779=ADVANCED_FACE('',(#71),#44,.T.);
#780=ADVANCED_FACE('',(#72),#48,.T.);
#781=ADVANCED_FACE('',(#73),#45,.T.);
#782=ADVANCED_FACE('',(#74),#46,.T.);
#783=ADVANCED_FACE('',(#75),#49,.T.);
#784=ADVANCED_FACE('',(#76),#760,.T.);
#785=ADVANCED_FACE('',(#77),#50,.T.);
#786=ADVANCED_FACE('',(#78,#19,#20,#21,#22,#23),#33,.F.);
#787=ADVANCED_FACE('',(#79),#761,.F.);
#788=ADVANCED_FACE('',(#80,#24,#25,#26,#27,#28),#34,.T.);
#789=ADVANCED_FACE('',(#81),#51,.F.);
#790=ADVANCED_FACE('',(#82,#29),#35,.T.);
#791=ADVANCED_FACE('',(#83),#762,.F.);
#792=ADVANCED_FACE('',(#84),#52,.T.);
#793=ADVANCED_FACE('',(#85),#763,.F.);
#794=ADVANCED_FACE('',(#86),#53,.F.);
#795=ADVANCED_FACE('',(#87,#30),#36,.T.);
#796=ADVANCED_FACE('',(#88),#764,.F.);
#797=ADVANCED_FACE('',(#89),#54,.T.);
#798=ADVANCED_FACE('',(#90),#765,.F.);
#799=ADVANCED_FACE('',(#91),#55,.T.);
#800=ADVANCED_FACE('',(#92,#31),#37,.T.);
#801=ADVANCED_FACE('',(#93),#766,.F.);
#802=ADVANCED_FACE('',(#94),#56,.T.);
#803=ADVANCED_FACE('',(#95,#32),#38,.T.);
#804=ADVANCED_FACE('',(#96),#767,.F.);
#805=ADVANCED_FACE('',(#97),#57,.F.);
#806=ADVANCED_FACE('',(#98),#768,.F.);
#807=ADVANCED_FACE('',(#99),#58,.F.);
#808=ADVANCED_FACE('',(#100),#769,.F.);
#809=ADVANCED_FACE('',(#101),#59,.T.);
#810=ADVANCED_FACE('',(#102),#60,.T.);
#811=ADVANCED_FACE('',(#103),#61,.T.);
#812=ADVANCED_FACE('',(#104),#62,.T.);
#813=ADVANCED_FACE('',(#105),#770,.T.);
#814=ADVANCED_FACE('',(#106),#39,.F.);
#815=ADVANCED_FACE('',(#107),#63,.T.);
#816=ADVANCED_FACE('',(#108),#64,.T.);
#817=ADVANCED_FACE('',(#109),#65,.T.);
#818=ADVANCED_FACE('',(#110),#66,.T.);
#819=ADVANCED_FACE('',(#111),#771,.T.);
#820=ADVANCED_FACE('',(#112),#772,.T.);
#821=ADVANCED_FACE('',(#113),#773,.T.);
#822=ADVANCED_FACE('',(#114),#774,.T.);
#823=ADVANCED_FACE('',(#115),#40,.F.);
#824=ADVANCED_FACE('',(#116),#41,.F.);
#825=ADVANCED_FACE('',(#117),#42,.F.);
#826=CLOSED_SHELL('',(#775,#776,#777,#778,#779,#780,#781,#782,#783,#784,
#785,#786,#787,#788,#789,#790,#791,#792,#793,#794,#795,#796,#797,#798,#799,
#800,#801,#802,#803,#804,#805,#806,#807,#808,#809,#810,#811,#812,#813,#814,
#815,#816,#817,#818,#819,#820,#821,#822,#823,#824,#825));
#827=DERIVED_UNIT_ELEMENT(#829,1.);
#828=DERIVED_UNIT_ELEMENT(#1544,-3.);
#829=(
MASS_UNIT()
NAMED_UNIT(*)
SI_UNIT(.KILO.,.GRAM.)
);
#830=DERIVED_UNIT((#827,#828));
#831=MEASURE_REPRESENTATION_ITEM('density measure',
POSITIVE_RATIO_MEASURE(1000.),#830);
#832=PROPERTY_DEFINITION_REPRESENTATION(#837,#834);
#833=PROPERTY_DEFINITION_REPRESENTATION(#838,#835);
#834=REPRESENTATION('material name',(#836),#1541);
#835=REPRESENTATION('density',(#831),#1541);
#836=DESCRIPTIVE_REPRESENTATION_ITEM('Generic','Generic');
#837=PROPERTY_DEFINITION('material property','material name',#1551);
#838=PROPERTY_DEFINITION('material property','density of part',#1551);
#839=AXIS2_PLACEMENT_3D('',#1294,#981,#982);
#840=AXIS2_PLACEMENT_3D('',#1295,#983,#984);
#841=AXIS2_PLACEMENT_3D('',#1298,#985,#986);
#842=AXIS2_PLACEMENT_3D('',#1302,#988,#989);
#843=AXIS2_PLACEMENT_3D('',#1304,#991,#992);
#844=AXIS2_PLACEMENT_3D('',#1306,#993,#994);
#845=AXIS2_PLACEMENT_3D('',#1308,#995,#996);
#846=AXIS2_PLACEMENT_3D('',#1310,#997,#998);
#847=AXIS2_PLACEMENT_3D('',#1311,#999,#1000);
#848=AXIS2_PLACEMENT_3D('',#1312,#1001,#1002);
#849=AXIS2_PLACEMENT_3D('',#1313,#1003,#1004);
#850=AXIS2_PLACEMENT_3D('',#1314,#1005,#1006);
#851=AXIS2_PLACEMENT_3D('',#1316,#1007,#1008);
#852=AXIS2_PLACEMENT_3D('',#1320,#1010,#1011);
#853=AXIS2_PLACEMENT_3D('',#1322,#1013,#1014);
#854=AXIS2_PLACEMENT_3D('',#1323,#1015,#1016);
#855=AXIS2_PLACEMENT_3D('',#1324,#1017,#1018);
#856=AXIS2_PLACEMENT_3D('',#1326,#1019,#1020);
#857=AXIS2_PLACEMENT_3D('',#1327,#1021,#1022);
#858=AXIS2_PLACEMENT_3D('',#1329,#1023,#1024);
#859=AXIS2_PLACEMENT_3D('',#1330,#1025,#1026);
#860=AXIS2_PLACEMENT_3D('',#1331,#1027,#1028);
#861=AXIS2_PLACEMENT_3D('',#1332,#1029,#1030);
#862=AXIS2_PLACEMENT_3D('',#1333,#1031,#1032);
#863=AXIS2_PLACEMENT_3D('',#1334,#1033,#1034);
#864=AXIS2_PLACEMENT_3D('',#1335,#1035,#1036);
#865=AXIS2_PLACEMENT_3D('',#1336,#1037,#1038);
#866=AXIS2_PLACEMENT_3D('',#1337,#1039,#1040);
#867=AXIS2_PLACEMENT_3D('',#1338,#1041,#1042);
#868=AXIS2_PLACEMENT_3D('',#1339,#1043,#1044);
#869=AXIS2_PLACEMENT_3D('',#1340,#1045,#1046);
#870=AXIS2_PLACEMENT_3D('',#1341,#1047,#1048);
#871=AXIS2_PLACEMENT_3D('',#1342,#1049,#1050);
#872=AXIS2_PLACEMENT_3D('',#1344,#1051,#1052);
#873=AXIS2_PLACEMENT_3D('',#1346,#1053,#1054);
#874=AXIS2_PLACEMENT_3D('',#1356,#1059,#1060);
#875=AXIS2_PLACEMENT_3D('',#1358,#1061,#1062);
#876=AXIS2_PLACEMENT_3D('',#1359,#1063,#1064);
#877=AXIS2_PLACEMENT_3D('',#1360,#1065,#1066);
#878=AXIS2_PLACEMENT_3D('',#1362,#1067,#1068);
#879=AXIS2_PLACEMENT_3D('',#1364,#1069,#1070);
#880=AXIS2_PLACEMENT_3D('',#1374,#1075,#1076);
#881=AXIS2_PLACEMENT_3D('',#1376,#1077,#1078);
#882=AXIS2_PLACEMENT_3D('',#1377,#1079,#1080);
#883=AXIS2_PLACEMENT_3D('',#1379,#1081,#1082);
#884=AXIS2_PLACEMENT_3D('',#1381,#1083,#1084);
#885=AXIS2_PLACEMENT_3D('',#1383,#1085,#1086);
#886=AXIS2_PLACEMENT_3D('',#1384,#1087,#1088);
#887=AXIS2_PLACEMENT_3D('',#1385,#1089,#1090);
#888=AXIS2_PLACEMENT_3D('',#1387,#1091,#1092);
#889=AXIS2_PLACEMENT_3D('',#1388,#1093,#1094);
#890=AXIS2_PLACEMENT_3D('',#1391,#1095,#1096);
#891=AXIS2_PLACEMENT_3D('',#1393,#1098,#1099);
#892=AXIS2_PLACEMENT_3D('',#1394,#1100,#1101);
#893=AXIS2_PLACEMENT_3D('',#1397,#1102,#1103);
#894=AXIS2_PLACEMENT_3D('',#1398,#1104,#1105);
#895=AXIS2_PLACEMENT_3D('',#1399,#1106,#1107);
#896=AXIS2_PLACEMENT_3D('',#1400,#1108,#1109);
#897=AXIS2_PLACEMENT_3D('',#1404,#1111,#1112);
#898=AXIS2_PLACEMENT_3D('',#1405,#1113,#1114);
#899=AXIS2_PLACEMENT_3D('',#1406,#1115,#1116);
#900=AXIS2_PLACEMENT_3D('',#1408,#1117,#1118);
#901=AXIS2_PLACEMENT_3D('',#1410,#1119,#1120);
#902=AXIS2_PLACEMENT_3D('',#1412,#1121,#1122);
#903=AXIS2_PLACEMENT_3D('',#1413,#1123,#1124);
#904=AXIS2_PLACEMENT_3D('',#1414,#1125,#1126);
#905=AXIS2_PLACEMENT_3D('',#1416,#1127,#1128);
#906=AXIS2_PLACEMENT_3D('',#1417,#1129,#1130);
#907=AXIS2_PLACEMENT_3D('',#1420,#1131,#1132);
#908=AXIS2_PLACEMENT_3D('',#1422,#1134,#1135);
#909=AXIS2_PLACEMENT_3D('',#1423,#1136,#1137);
#910=AXIS2_PLACEMENT_3D('',#1426,#1138,#1139);
#911=AXIS2_PLACEMENT_3D('',#1427,#1140,#1141);
#912=AXIS2_PLACEMENT_3D('',#1428,#1142,#1143);
#913=AXIS2_PLACEMENT_3D('',#1429,#1144,#1145);
#914=AXIS2_PLACEMENT_3D('',#1433,#1147,#1148);
#915=AXIS2_PLACEMENT_3D('',#1434,#1149,#1150);
#916=AXIS2_PLACEMENT_3D('',#1435,#1151,#1152);
#917=AXIS2_PLACEMENT_3D('',#1438,#1153,#1154);
#918=AXIS2_PLACEMENT_3D('',#1440,#1155,#1156);
#919=AXIS2_PLACEMENT_3D('',#1441,#1157,#1158);
#920=AXIS2_PLACEMENT_3D('',#1442,#1159,#1160);
#921=AXIS2_PLACEMENT_3D('',#1443,#1161,#1162);
#922=AXIS2_PLACEMENT_3D('',#1445,#1163,#1164);
#923=AXIS2_PLACEMENT_3D('',#1446,#1165,#1166);
#924=AXIS2_PLACEMENT_3D('',#1450,#1168,#1169);
#925=AXIS2_PLACEMENT_3D('',#1451,#1170,#1171);
#926=AXIS2_PLACEMENT_3D('',#1452,#1172,#1173);
#927=AXIS2_PLACEMENT_3D('',#1455,#1174,#1175);
#928=AXIS2_PLACEMENT_3D('',#1457,#1176,#1177);
#929=AXIS2_PLACEMENT_3D('',#1458,#1178,#1179);
#930=AXIS2_PLACEMENT_3D('',#1459,#1180,#1181);
#931=AXIS2_PLACEMENT_3D('',#1460,#1182,#1183);
#932=AXIS2_PLACEMENT_3D('',#1462,#1184,#1185);
#933=AXIS2_PLACEMENT_3D('',#1463,#1186,#1187);
#934=AXIS2_PLACEMENT_3D('',#1467,#1189,#1190);
#935=AXIS2_PLACEMENT_3D('',#1468,#1191,#1192);
#936=AXIS2_PLACEMENT_3D('',#1469,#1193,#1194);
#937=AXIS2_PLACEMENT_3D('',#1471,#1195,#1196);
#938=AXIS2_PLACEMENT_3D('',#1473,#1197,#1198);
#939=AXIS2_PLACEMENT_3D('',#1474,#1199,#1200);
#940=AXIS2_PLACEMENT_3D('',#1475,#1201,#1202);
#941=AXIS2_PLACEMENT_3D('',#1478,#1203,#1204);
#942=AXIS2_PLACEMENT_3D('',#1480,#1206,#1207);
#943=AXIS2_PLACEMENT_3D('',#1481,#1208,#1209);
#944=AXIS2_PLACEMENT_3D('',#1483,#1210,#1211);
#945=AXIS2_PLACEMENT_3D('',#1485,#1212,#1213);
#946=AXIS2_PLACEMENT_3D('',#1486,#1214,#1215);
#947=AXIS2_PLACEMENT_3D('',#1487,#1216,#1217);
#948=AXIS2_PLACEMENT_3D('',#1490,#1218,#1219);
#949=AXIS2_PLACEMENT_3D('',#1492,#1221,#1222);
#950=AXIS2_PLACEMENT_3D('',#1493,#1223,#1224);
#951=AXIS2_PLACEMENT_3D('',#1494,#1225,#1226);
#952=AXIS2_PLACEMENT_3D('',#1495,#1227,#1228);
#953=AXIS2_PLACEMENT_3D('',#1496,#1229,#1230);
#954=AXIS2_PLACEMENT_3D('',#1497,#1231,#1232);
#955=AXIS2_PLACEMENT_3D('',#1498,#1233,#1234);
#956=AXIS2_PLACEMENT_3D('',#1499,#1235,#1236);
#957=AXIS2_PLACEMENT_3D('',#1500,#1237,#1238);
#958=AXIS2_PLACEMENT_3D('',#1501,#1239,#1240);
#959=AXIS2_PLACEMENT_3D('',#1503,#1241,#1242);
#960=AXIS2_PLACEMENT_3D('',#1506,#1244,#1245);
#961=AXIS2_PLACEMENT_3D('',#1507,#1246,#1247);
#962=AXIS2_PLACEMENT_3D('',#1513,#1251,#1252);
#963=AXIS2_PLACEMENT_3D('',#1514,#1253,#1254);
#964=AXIS2_PLACEMENT_3D('',#1515,#1255,#1256);
#965=AXIS2_PLACEMENT_3D('',#1516,#1257,#1258);
#966=AXIS2_PLACEMENT_3D('',#1517,#1259,#1260);
#967=AXIS2_PLACEMENT_3D('',#1518,#1261,#1262);
#968=AXIS2_PLACEMENT_3D('',#1519,#1263,#1264);
#969=AXIS2_PLACEMENT_3D('',#1520,#1265,#1266);
#970=AXIS2_PLACEMENT_3D('',#1521,#1267,#1268);
#971=AXIS2_PLACEMENT_3D('',#1523,#1269,#1270);
#972=AXIS2_PLACEMENT_3D('',#1526,#1272,#1273);
#973=AXIS2_PLACEMENT_3D('',#1527,#1274,#1275);
#974=AXIS2_PLACEMENT_3D('',#1528,#1276,#1277);
#975=AXIS2_PLACEMENT_3D('',#1530,#1279,#1280);
#976=AXIS2_PLACEMENT_3D('',#1531,#1281,#1282);
#977=AXIS2_PLACEMENT_3D('',#1532,#1283,#1284);
#978=AXIS2_PLACEMENT_3D('',#1534,#1286,#1287);
#979=AXIS2_PLACEMENT_3D('',#1536,#1289,#1290);
#980=AXIS2_PLACEMENT_3D('',#1538,#1292,#1293);
#981=DIRECTION('axis',(0.,0.,1.));
#982=DIRECTION('refdir',(1.,0.,0.));
#983=DIRECTION('center_axis',(0.,1.,0.));
#984=DIRECTION('ref_axis',(-0.868767456151174,0.,0.495220261229907));
#985=DIRECTION('center_axis',(0.,1.,0.));
#986=DIRECTION('ref_axis',(-0.97702977294814,0.,-0.213102845529818));
#987=DIRECTION('',(0.,1.,0.));
#988=DIRECTION('center_axis',(0.,-1.,0.));
#989=DIRECTION('ref_axis',(-0.314443132624946,0.,0.949276311905554));
#990=DIRECTION('',(0.,-1.,0.));
#991=DIRECTION('center_axis',(0.,-1.,0.));
#992=DIRECTION('ref_axis',(0.,0.,-1.));
#993=DIRECTION('center_axis',(0.949276311905555,-3.55704406657852E-15,0.314443132624943));
#994=DIRECTION('ref_axis',(1.11022302462516E-14,1.,-2.22044604925031E-14));
#995=DIRECTION('center_axis',(0.,-1.,0.));
#996=DIRECTION('ref_axis',(1.,0.,0.));
#997=DIRECTION('center_axis',(0.949276311905555,-3.55704406657852E-15,-0.314443132624943));
#998=DIRECTION('ref_axis',(-0.314443132624943,0.,-0.949276311905555));
#999=DIRECTION('center_axis',(0.,1.,0.));
#1000=DIRECTION('ref_axis',(1.,0.,0.));
#1001=DIRECTION('center_axis',(0.,0.,1.));
#1002=DIRECTION('ref_axis',(1.,0.,0.));
#1003=DIRECTION('center_axis',(-0.213102845529818,0.,0.97702977294814));
#1004=DIRECTION('ref_axis',(-0.97702977294814,0.,-0.213102845529818));
#1005=DIRECTION('center_axis',(0.,-1.,0.));
#1006=DIRECTION('ref_axis',(-0.868767456151174,0.,-0.495220261229907));
#1007=DIRECTION('center_axis',(0.,-1.,0.));
#1008=DIRECTION('ref_axis',(-0.97702977294814,0.,0.213102845529818));
#1009=DIRECTION('',(0.,-1.,0.));
#1010=DIRECTION('center_axis',(0.,1.,0.));
#1011=DIRECTION('ref_axis',(-0.314443132624946,0.,-0.949276311905554));
#1012=DIRECTION('',(0.,1.,0.));
#1013=DIRECTION('center_axis',(0.,0.,1.));
#1014=DIRECTION('ref_axis',(1.,0.,0.));
#1015=DIRECTION('center_axis',(-0.213102845529818,0.,-0.97702977294814));
#1016=DIRECTION('ref_axis',(-0.97702977294814,0.,0.213102845529818));
#1017=DIRECTION('center_axis',(0.,1.,0.));
#1018=DIRECTION('ref_axis',(0.,0.,1.));
#1019=DIRECTION('center_axis',(0.949276311905555,3.55704406657852E-15,-0.314443132624943));
#1020=DIRECTION('ref_axis',(1.11022302462516E-14,-1.,2.22044604925031E-14));
#1021=DIRECTION('center_axis',(0.,1.,0.));
#1022=DIRECTION('ref_axis',(1.,0.,0.));
#1023=DIRECTION('center_axis',(0.949276311905555,3.55704406657852E-15,0.314443132624943));
#1024=DIRECTION('ref_axis',(-0.314443132624943,0.,0.949276311905555));
#1025=DIRECTION('center_axis',(0.,-1.,0.));
#1026=DIRECTION('ref_axis',(1.,0.,0.));
#1027=DIRECTION('center_axis',(0.,0.,1.));
#1028=DIRECTION('ref_axis',(1.,0.,0.));
#1029=DIRECTION('center_axis',(-0.213102845529818,0.,-0.97702977294814));
#1030=DIRECTION('ref_axis',(-0.97702977294814,0.,0.213102845529818));
#1031=DIRECTION('center_axis',(0.,0.,1.));
#1032=DIRECTION('ref_axis',(1.,0.,0.));
#1033=DIRECTION('center_axis',(-0.213102845529818,0.,0.97702977294814));
#1034=DIRECTION('ref_axis',(-0.97702977294814,0.,-0.213102845529818));
#1035=DIRECTION('center_axis',(0.,1.,0.));
#1036=DIRECTION('ref_axis',(1.,0.,6.12323399573677E-17));
#1037=DIRECTION('center_axis',(0.,1.,0.));
#1038=DIRECTION('ref_axis',(1.,0.,1.22464679914735E-16));
#1039=DIRECTION('center_axis',(0.,-1.,0.));
#1040=DIRECTION('ref_axis',(1.,0.,1.22464679914735E-16));
#1041=DIRECTION('center_axis',(0.,1.,0.));
#1042=DIRECTION('ref_axis',(1.,0.,-3.21624529935327E-16));
#1043=DIRECTION('center_axis',(0.,-1.,0.));
#1044=DIRECTION('ref_axis',(1.,0.,1.22464679914735E-16));
#1045=DIRECTION('center_axis',(0.,1.,0.));
#1046=DIRECTION('ref_axis',(1.,0.,-1.60812264967664E-16));
#1047=DIRECTION('center_axis',(0.,1.,0.));
#1048=DIRECTION('ref_axis',(1.,0.,1.22464679914735E-16));
#1049=DIRECTION('center_axis',(0.,1.,0.));
#1050=DIRECTION('ref_axis',(0.,0.,1.));
#1051=DIRECTION('center_axis',(0.,-1.,0.));
#1052=DIRECTION('ref_axis',(1.,0.,0.));
#1053=DIRECTION('center_axis',(0.,-1.,0.));
#1054=DIRECTION('ref_axis',(1.,0.,0.));
#1055=DIRECTION('',(-1.,0.,2.23835287222814E-16));
#1056=DIRECTION('',(-1.88173394004264E-16,0.,1.));
#1057=DIRECTION('',(1.,0.,-1.11917643611407E-16));
#1058=DIRECTION('',(9.40866970021319E-17,0.,1.));
#1059=DIRECTION('center_axis',(0.,-1.,0.));
#1060=DIRECTION('ref_axis',(1.,0.,0.));
#1061=DIRECTION('center_axis',(0.,-1.,0.));
#1062=DIRECTION('ref_axis',(1.,0.,0.));
#1063=DIRECTION('center_axis',(0.,-1.,0.));
#1064=DIRECTION('ref_axis',(1.,0.,0.));
#1065=DIRECTION('center_axis',(0.,1.,0.));
#1066=DIRECTION('ref_axis',(0.,0.,1.));
#1067=DIRECTION('center_axis',(0.,1.,0.));
#1068=DIRECTION('ref_axis',(-1.,0.,0.));
#1069=DIRECTION('center_axis',(0.,1.,0.));
#1070=DIRECTION('ref_axis',(-1.,0.,0.));
#1071=DIRECTION('',(-1.88173394004264E-16,0.,1.));
#1072=DIRECTION('',(-1.,0.,2.23835287222814E-16));
#1073=DIRECTION('',(-9.40866970021319E-17,0.,-1.));
#1074=DIRECTION('',(1.,0.,-1.11917643611407E-16));
#1075=DIRECTION('center_axis',(0.,1.,0.));
#1076=DIRECTION('ref_axis',(-1.,0.,0.));
#1077=DIRECTION('center_axis',(0.,1.,0.));
#1078=DIRECTION('ref_axis',(-1.,0.,0.));
#1079=DIRECTION('center_axis',(0.,-1.,0.));
#1080=DIRECTION('ref_axis',(0.,0.,-1.));
#1081=DIRECTION('center_axis',(0.,-1.,0.));
#1082=DIRECTION('ref_axis',(-1.,0.,0.));
#1083=DIRECTION('center_axis',(-1.,0.,0.));
#1084=DIRECTION('ref_axis',(0.,0.,1.));
#1085=DIRECTION('center_axis',(0.,1.,0.));
#1086=DIRECTION('ref_axis',(-1.,0.,0.));
#1087=DIRECTION('center_axis',(0.,1.,0.));
#1088=DIRECTION('ref_axis',(-1.,0.,0.));
#1089=DIRECTION('center_axis',(0.,1.,0.));
#1090=DIRECTION('ref_axis',(0.,0.,1.));
#1091=DIRECTION('center_axis',(0.,1.,0.));
#1092=DIRECTION('ref_axis',(1.,0.,0.));
#1093=DIRECTION('center_axis',(0.,-1.,0.));
#1094=DIRECTION('ref_axis',(1.,0.,0.));
#1095=DIRECTION('center_axis',(0.,-1.,0.));
#1096=DIRECTION('ref_axis',(-1.,0.,0.));
#1097=DIRECTION('',(0.,-1.,0.));
#1098=DIRECTION('center_axis',(0.,-1.,0.));
#1099=DIRECTION('ref_axis',(-1.,0.,0.));
#1100=DIRECTION('center_axis',(0.,1.,0.));
#1101=DIRECTION('ref_axis',(0.,0.,1.));
#1102=DIRECTION('center_axis',(0.,-1.,0.));
#1103=DIRECTION('ref_axis',(1.,0.,0.));
#1104=DIRECTION('center_axis',(-1.,0.,0.));
#1105=DIRECTION('ref_axis',(0.,0.,-1.));
#1106=DIRECTION('center_axis',(0.,-1.,0.));
#1107=DIRECTION('ref_axis',(1.,0.,0.));
#1108=DIRECTION('center_axis',(0.,1.,0.));
#1109=DIRECTION('ref_axis',(1.,0.,0.));
#1110=DIRECTION('',(0.,-1.,0.));
#1111=DIRECTION('center_axis',(0.,1.,0.));
#1112=DIRECTION('ref_axis',(1.,0.,0.));
#1113=DIRECTION('center_axis',(0.,1.,0.));
#1114=DIRECTION('ref_axis',(1.,0.,0.));
#1115=DIRECTION('center_axis',(0.,-1.,0.));
#1116=DIRECTION('ref_axis',(0.,0.,-1.));
#1117=DIRECTION('center_axis',(0.,-1.,0.));
#1118=DIRECTION('ref_axis',(-1.,0.,0.));
#1119=DIRECTION('center_axis',(-1.,0.,0.));
#1120=DIRECTION('ref_axis',(0.,0.,1.));
#1121=DIRECTION('center_axis',(0.,1.,0.));
#1122=DIRECTION('ref_axis',(-1.,0.,0.));
#1123=DIRECTION('center_axis',(0.,1.,0.));
#1124=DIRECTION('ref_axis',(-1.,0.,0.));
#1125=DIRECTION('center_axis',(0.,1.,0.));
#1126=DIRECTION('ref_axis',(0.,0.,1.));
#1127=DIRECTION('center_axis',(0.,1.,0.));
#1128=DIRECTION('ref_axis',(1.,0.,0.));
#1129=DIRECTION('center_axis',(0.,-1.,0.));
#1130=DIRECTION('ref_axis',(1.,0.,0.));
#1131=DIRECTION('center_axis',(0.,-1.,0.));
#1132=DIRECTION('ref_axis',(-1.,0.,0.));
#1133=DIRECTION('',(0.,-1.,0.));
#1134=DIRECTION('center_axis',(0.,-1.,0.));
#1135=DIRECTION('ref_axis',(-1.,0.,0.));
#1136=DIRECTION('center_axis',(0.,1.,0.));
#1137=DIRECTION('ref_axis',(0.,0.,1.));
#1138=DIRECTION('center_axis',(0.,-1.,0.));
#1139=DIRECTION('ref_axis',(1.,0.,0.));
#1140=DIRECTION('center_axis',(-1.,0.,0.));
#1141=DIRECTION('ref_axis',(0.,0.,-1.));
#1142=DIRECTION('center_axis',(0.,-1.,0.));
#1143=DIRECTION('ref_axis',(1.,0.,0.));
#1144=DIRECTION('center_axis',(0.,1.,0.));
#1145=DIRECTION('ref_axis',(1.,0.,0.));
#1146=DIRECTION('',(0.,-1.,0.));
#1147=DIRECTION('center_axis',(0.,1.,0.));
#1148=DIRECTION('ref_axis',(1.,0.,0.));
#1149=DIRECTION('center_axis',(0.,1.,0.));
#1150=DIRECTION('ref_axis',(1.,0.,0.));
#1151=DIRECTION('center_axis',(0.,1.,0.));
#1152=DIRECTION('ref_axis',(0.,0.,1.));
#1153=DIRECTION('center_axis',(0.,-1.,0.));
#1154=DIRECTION('ref_axis',(1.,0.,0.));
#1155=DIRECTION('center_axis',(-1.,0.,0.));
#1156=DIRECTION('ref_axis',(0.,0.,-1.));
#1157=DIRECTION('center_axis',(0.,1.,0.));
#1158=DIRECTION('ref_axis',(1.,0.,0.));
#1159=DIRECTION('center_axis',(0.,-1.,0.));
#1160=DIRECTION('ref_axis',(1.,0.,0.));
#1161=DIRECTION('center_axis',(0.,1.,0.));
#1162=DIRECTION('ref_axis',(0.,0.,1.));
#1163=DIRECTION('center_axis',(0.,-1.,0.));
#1164=DIRECTION('ref_axis',(-1.,0.,0.));
#1165=DIRECTION('center_axis',(0.,1.,0.));
#1166=DIRECTION('ref_axis',(1.,0.,0.));
#1167=DIRECTION('',(0.,-1.,0.));
#1168=DIRECTION('center_axis',(0.,1.,0.));
#1169=DIRECTION('ref_axis',(1.,0.,0.));
#1170=DIRECTION('center_axis',(0.,1.,0.));
#1171=DIRECTION('ref_axis',(1.,0.,0.));
#1172=DIRECTION('center_axis',(0.,1.,0.));
#1173=DIRECTION('ref_axis',(0.,0.,1.));
#1174=DIRECTION('center_axis',(0.,-1.,0.));
#1175=DIRECTION('ref_axis',(1.,0.,0.));
#1176=DIRECTION('center_axis',(-1.,0.,0.));
#1177=DIRECTION('ref_axis',(0.,0.,-1.));
#1178=DIRECTION('center_axis',(0.,1.,0.));
#1179=DIRECTION('ref_axis',(1.,0.,0.));
#1180=DIRECTION('center_axis',(0.,-1.,0.));
#1181=DIRECTION('ref_axis',(1.,0.,0.));
#1182=DIRECTION('center_axis',(0.,1.,0.));
#1183=DIRECTION('ref_axis',(0.,0.,1.));
#1184=DIRECTION('center_axis',(0.,-1.,0.));
#1185=DIRECTION('ref_axis',(-1.,0.,0.));
#1186=DIRECTION('center_axis',(0.,1.,0.));
#1187=DIRECTION('ref_axis',(1.,0.,0.));
#1188=DIRECTION('',(0.,-1.,0.));
#1189=DIRECTION('center_axis',(0.,1.,0.));
#1190=DIRECTION('ref_axis',(1.,0.,0.));
#1191=DIRECTION('center_axis',(0.,1.,0.));
#1192=DIRECTION('ref_axis',(1.,0.,0.));
#1193=DIRECTION('center_axis',(0.,-1.,0.));
#1194=DIRECTION('ref_axis',(0.,0.,-1.));
#1195=DIRECTION('center_axis',(-1.,0.,0.));
#1196=DIRECTION('ref_axis',(0.,0.,1.));
#1197=DIRECTION('center_axis',(0.,1.,0.));
#1198=DIRECTION('ref_axis',(-1.,0.,0.));
#1199=DIRECTION('center_axis',(0.,1.,0.));
#1200=DIRECTION('ref_axis',(-1.,0.,0.));
#1201=DIRECTION('center_axis',(0.,-1.,0.));
#1202=DIRECTION('ref_axis',(1.,0.,0.));
#1203=DIRECTION('center_axis',(0.,-1.,0.));
#1204=DIRECTION('ref_axis',(-1.,0.,0.));
#1205=DIRECTION('',(0.,-1.,0.));
#1206=DIRECTION('center_axis',(0.,-1.,0.));
#1207=DIRECTION('ref_axis',(-1.,0.,0.));
#1208=DIRECTION('center_axis',(0.,-1.,0.));
#1209=DIRECTION('ref_axis',(0.,0.,-1.));
#1210=DIRECTION('center_axis',(-1.,0.,0.));
#1211=DIRECTION('ref_axis',(0.,0.,1.));
#1212=DIRECTION('center_axis',(0.,1.,0.));
#1213=DIRECTION('ref_axis',(-1.,0.,0.));
#1214=DIRECTION('center_axis',(0.,1.,0.));
#1215=DIRECTION('ref_axis',(-1.,0.,0.));
#1216=DIRECTION('center_axis',(0.,-1.,0.));
#1217=DIRECTION('ref_axis',(1.,0.,0.));
#1218=DIRECTION('center_axis',(0.,-1.,0.));
#1219=DIRECTION('ref_axis',(-1.,0.,0.));
#1220=DIRECTION('',(0.,-1.,0.));
#1221=DIRECTION('center_axis',(0.,-1.,0.));
#1222=DIRECTION('ref_axis',(-1.,0.,0.));
#1223=DIRECTION('center_axis',(0.,-1.,0.));
#1224=DIRECTION('ref_axis',(0.,0.,-1.));
#1225=DIRECTION('center_axis',(-1.,0.,0.));
#1226=DIRECTION('ref_axis',(0.,0.,1.));
#1227=DIRECTION('center_axis',(0.,-1.,0.));
#1228=DIRECTION('ref_axis',(0.,0.,-1.));
#1229=DIRECTION('center_axis',(-1.,0.,0.));
#1230=DIRECTION('ref_axis',(0.,0.,1.));
#1231=DIRECTION('center_axis',(0.,-1.,0.));
#1232=DIRECTION('ref_axis',(0.,0.,-1.));
#1233=DIRECTION('center_axis',(-1.,0.,0.));
#1234=DIRECTION('ref_axis',(0.,0.,1.));
#1235=DIRECTION('center_axis',(0.,-1.,0.));
#1236=DIRECTION('ref_axis',(0.,0.,-1.));
#1237=DIRECTION('center_axis',(-1.,0.,0.));
#1238=DIRECTION('ref_axis',(0.,0.,1.));
#1239=DIRECTION('center_axis',(-9.40866970021319E-17,0.,-1.));
#1240=DIRECTION('ref_axis',(-0.707106781186548,-0.707106781186548,0.));
#1241=DIRECTION('center_axis',(1.11917643611407E-16,0.,1.));
#1242=DIRECTION('ref_axis',(-0.707106781186548,-0.707106781186548,0.));
#1243=DIRECTION('',(-9.40866970021319E-17,0.,-1.));
#1244=DIRECTION('center_axis',(-2.23835287222814E-16,0.,-1.));
#1245=DIRECTION('ref_axis',(-0.707106781186548,-0.707106781186548,0.));
#1246=DIRECTION('center_axis',(1.,0.,-9.40866970021319E-17));
#1247=DIRECTION('ref_axis',(9.40866970021319E-17,0.,1.));
#1248=DIRECTION('',(0.,-1.,0.));
#1249=DIRECTION('',(9.40866970021319E-17,0.,1.));
#1250=DIRECTION('',(0.,-1.,0.));
#1251=DIRECTION('center_axis',(0.,-1.,0.));
#1252=DIRECTION('ref_axis',(0.,0.,-1.));
#1253=DIRECTION('center_axis',(-1.,0.,0.));
#1254=DIRECTION('ref_axis',(0.,0.,1.));
#1255=DIRECTION('center_axis',(0.,-1.,0.));
#1256=DIRECTION('ref_axis',(0.,0.,-1.));
#1257=DIRECTION('center_axis',(-1.,0.,0.));
#1258=DIRECTION('ref_axis',(0.,0.,1.));
#1259=DIRECTION('center_axis',(0.,-1.,0.));
#1260=DIRECTION('ref_axis',(0.,0.,-1.));
#1261=DIRECTION('center_axis',(-1.,0.,0.));
#1262=DIRECTION('ref_axis',(0.,0.,1.));
#1263=DIRECTION('center_axis',(0.,-1.,0.));
#1264=DIRECTION('ref_axis',(0.,0.,-1.));
#1265=DIRECTION('center_axis',(-1.,0.,0.));
#1266=DIRECTION('ref_axis',(0.,0.,1.));
#1267=DIRECTION('center_axis',(1.88173394004264E-16,0.,-1.));
#1268=DIRECTION('ref_axis',(0.707106781186548,0.707106781186548,0.));
#1269=DIRECTION('center_axis',(-0.707106781186548,0.,-0.707106781186548));
#1270=DIRECTION('ref_axis',(-0.707106781186547,0.,0.707106781186547));
#1271=DIRECTION('',(1.88173394004264E-16,0.,-1.));
#1272=DIRECTION('center_axis',(-0.707106781186548,0.,0.707106781186548));
#1273=DIRECTION('ref_axis',(0.707106781186547,0.,0.707106781186547));
#1274=DIRECTION('center_axis',(-1.,0.,1.11917643611407E-16));
#1275=DIRECTION('ref_axis',(0.,0.707106781186548,-0.707106781186548));
#1276=DIRECTION('center_axis',(-0.707106781186546,-3.9252311467094E-15,
0.70710678118655));
#1277=DIRECTION('ref_axis',(0.707106781186549,-3.92523114670938E-15,0.707106781186545));
#1278=DIRECTION('',(-1.,0.,1.11917643611407E-16));
#1279=DIRECTION('center_axis',(9.40866970021319E-17,0.,1.));
#1280=DIRECTION('ref_axis',(-0.707106781186548,0.707106781186548,0.));
#1281=DIRECTION('center_axis',(0.70710678118655,0.,0.707106781186546));
#1282=DIRECTION('ref_axis',(0.707106781186545,0.,-0.707106781186549));
#1283=DIRECTION('center_axis',(1.,0.,-2.23835287222814E-16));
#1284=DIRECTION('ref_axis',(0.,0.707106781186548,0.707106781186548));
#1285=DIRECTION('',(1.,0.,-2.23835287222814E-16));
#1286=DIRECTION('center_axis',(-2.23835287222814E-16,0.,-1.));
#1287=DIRECTION('ref_axis',(1.,0.,-2.23835287222814E-16));
#1288=DIRECTION('',(0.,-1.,0.));
#1289=DIRECTION('center_axis',(-1.,0.,-1.88173394004264E-16));
#1290=DIRECTION('ref_axis',(1.88173394004264E-16,0.,-1.));
#1291=DIRECTION('',(0.,-1.,0.));
#1292=DIRECTION('center_axis',(1.11917643611407E-16,0.,1.));
#1293=DIRECTION('ref_axis',(-1.,0.,1.11917643611407E-16));
#1294=CARTESIAN_POINT('',(0.,0.,0.));
#1295=CARTESIAN_POINT('Origin',(-14.3623376623377,0.,-3.13261182928833));
#1296=CARTESIAN_POINT('',(-14.5577436169273,0.2,-3.17523239839429));
#1297=CARTESIAN_POINT('',(-14.4252262888627,0.2,-2.94275656690721));
#1298=CARTESIAN_POINT('Origin',(-14.3623376623377,0.2,-3.13261182928833));
#1299=CARTESIAN_POINT('',(-14.4252262888627,2.8,-2.94275656690721));
#1300=CARTESIAN_POINT('',(-14.4252262888627,0.,-2.94275656690721));
#1301=CARTESIAN_POINT('',(-14.5577436169273,2.8,-3.17523239839429));
#1302=CARTESIAN_POINT('Origin',(-14.3623376623377,2.8,-3.13261182928833));
#1303=CARTESIAN_POINT('',(-14.5577436169273,0.,-3.17523239839429));
#1304=CARTESIAN_POINT('Origin',(-15.4,2.8,2.22044604925031E-15));
#1305=CARTESIAN_POINT('',(-14.3623376623377,3.,-3.13261182928833));
#1306=CARTESIAN_POINT('Origin',(-14.3623376623377,2.8,-3.13261182928832));
#1307=CARTESIAN_POINT('',(-14.4252262888627,2.8,2.94275656690722));
#1308=CARTESIAN_POINT('Origin',(-15.4,2.8,2.22044604925031E-15));
#1309=CARTESIAN_POINT('',(-14.3623376623377,3.,3.13261182928833));
#1310=CARTESIAN_POINT('Origin',(-14.3623376623377,2.8,3.13261182928833));
#1311=CARTESIAN_POINT('Origin',(-15.4,3.,2.22044604925031E-15));
#1312=CARTESIAN_POINT('Origin',(-14.3623376623377,2.8,-3.13261182928833));
#1313=CARTESIAN_POINT('Origin',(-14.3623376623377,2.8,-3.13261182928833));
#1314=CARTESIAN_POINT('Origin',(-14.3623376623377,0.,3.13261182928833));
#1315=CARTESIAN_POINT('',(-14.5577436169273,2.8,3.17523239839429));
#1316=CARTESIAN_POINT('Origin',(-14.3623376623377,2.8,3.13261182928833));
#1317=CARTESIAN_POINT('',(-14.4252262888627,0.2,2.94275656690722));
#1318=CARTESIAN_POINT('',(-14.4252262888627,0.,2.94275656690722));
#1319=CARTESIAN_POINT('',(-14.5577436169273,0.2,3.17523239839429));
#1320=CARTESIAN_POINT('Origin',(-14.3623376623377,0.2,3.13261182928833));
#1321=CARTESIAN_POINT('',(-14.5577436169273,0.,3.17523239839429));
#1322=CARTESIAN_POINT('Origin',(-14.3623376623377,2.8,3.13261182928833));
#1323=CARTESIAN_POINT('Origin',(-14.3623376623377,2.8,3.13261182928833));
#1324=CARTESIAN_POINT('Origin',(-15.4,0.2,2.22044604925031E-15));
#1325=CARTESIAN_POINT('',(-14.3623376623377,0.,3.13261182928833));
#1326=CARTESIAN_POINT('Origin',(-14.3623376623377,0.2,3.13261182928833));
#1327=CARTESIAN_POINT('Origin',(-15.4,0.2,2.22044604925031E-15));
#1328=CARTESIAN_POINT('',(-14.3623376623377,0.,-3.13261182928833));
#1329=CARTESIAN_POINT('Origin',(-14.3623376623377,0.2,-3.13261182928832));
#1330=CARTESIAN_POINT('Origin',(-15.4,0.,2.22044604925031E-15));
#1331=CARTESIAN_POINT('Origin',(-14.3623376623377,0.2,3.13261182928833));
#1332=CARTESIAN_POINT('Origin',(-14.3623376623377,0.2,3.13261182928833));
#1333=CARTESIAN_POINT('Origin',(-14.3623376623377,0.2,-3.13261182928832));
#1334=CARTESIAN_POINT('Origin',(-14.3623376623377,0.2,-3.13261182928832));
#1335=CARTESIAN_POINT('Origin',(0.,2.8,0.));
#1336=CARTESIAN_POINT('Origin',(0.,2.8,0.));
#1337=CARTESIAN_POINT('Origin',(0.,3.,0.));
#1338=CARTESIAN_POINT('Origin',(0.,0.,0.));
#1339=CARTESIAN_POINT('Origin',(0.,0.2,0.));
#1340=CARTESIAN_POINT('Origin',(0.,0.2,0.));
#1341=CARTESIAN_POINT('Origin',(0.,0.,0.));
#1342=CARTESIAN_POINT('Origin',(0.,0.,0.));
#1343=CARTESIAN_POINT('',(-6.,0.,11.6));
#1344=CARTESIAN_POINT('Origin',(-6.,0.,10.));
#1345=CARTESIAN_POINT('',(6.,0.,-8.4));
#1346=CARTESIAN_POINT('Origin',(6.,0.,-10.));
#1347=CARTESIAN_POINT('',(10.12,0.,-5.90000000000001));
#1348=CARTESIAN_POINT('',(-9.92,0.,-5.9));
#1349=CARTESIAN_POINT('',(-4.96,0.,-5.9));
#1350=CARTESIAN_POINT('',(-9.92,0.,5.9));
#1351=CARTESIAN_POINT('',(-9.92,0.,2.95));
#1352=CARTESIAN_POINT('',(10.12,0.,5.9));
#1353=CARTESIAN_POINT('',(4.96,0.,5.9));
#1354=CARTESIAN_POINT('',(10.12,0.,-2.95));
#1355=CARTESIAN_POINT('',(6.,0.,11.6));
#1356=CARTESIAN_POINT('Origin',(6.,0.,10.));
#1357=CARTESIAN_POINT('',(-6.,0.,-8.4));
#1358=CARTESIAN_POINT('Origin',(-6.,0.,-10.));
#1359=CARTESIAN_POINT('Origin',(-15.4,3.,2.22044604925031E-15));
#1360=CARTESIAN_POINT('Origin',(0.,3.,0.));
#1361=CARTESIAN_POINT('',(6.,3.,-7.14));
#1362=CARTESIAN_POINT('Origin',(6.,3.,-10.));
#1363=CARTESIAN_POINT('',(-6.,3.,12.86));
#1364=CARTESIAN_POINT('Origin',(-6.,3.,10.));
#1365=CARTESIAN_POINT('',(-10.12,3.,-6.1));
#1366=CARTESIAN_POINT('',(-10.12,3.,6.1));
#1367=CARTESIAN_POINT('',(-10.12,3.,2.95));
#1368=CARTESIAN_POINT('',(10.12,3.,-6.1));
#1369=CARTESIAN_POINT('',(-4.96,3.,-6.1));
#1370=CARTESIAN_POINT('',(10.12,3.,6.1));
#1371=CARTESIAN_POINT('',(10.12,3.,-2.95));
#1372=CARTESIAN_POINT('',(4.96,3.,6.1));
#1373=CARTESIAN_POINT('',(6.,3.,12.86));
#1374=CARTESIAN_POINT('Origin',(6.,3.,10.));
#1375=CARTESIAN_POINT('',(-6.,3.,-7.14));
#1376=CARTESIAN_POINT('Origin',(-6.,3.,-10.));
#1377=CARTESIAN_POINT('Origin',(6.,1.3,-10.));
#1378=CARTESIAN_POINT('',(6.,1.,-7.64));
#1379=CARTESIAN_POINT('Origin',(6.,1.,-10.));
#1380=CARTESIAN_POINT('',(6.,1.3,-7.34));
#1381=CARTESIAN_POINT('Origin',(6.,1.3,-7.64));
#1382=CARTESIAN_POINT('',(3.34,1.3,-10.));
#1383=CARTESIAN_POINT('Origin',(6.,1.3,-10.));
#1384=CARTESIAN_POINT('Origin',(6.,1.3,-10.));
#1385=CARTESIAN_POINT('Origin',(6.,1.,-10.));
#1386=CARTESIAN_POINT('',(6.,1.,-11.7));
#1387=CARTESIAN_POINT('Origin',(6.,1.,-10.));
#1388=CARTESIAN_POINT('Origin',(6.,3.,-10.));
#1389=CARTESIAN_POINT('',(3.34,2.8,-10.));
#1390=CARTESIAN_POINT('',(6.,2.8,-7.34));
#1391=CARTESIAN_POINT('Origin',(6.,2.8,-10.));
#1392=CARTESIAN_POINT('',(3.34,3.,-10.));
#1393=CARTESIAN_POINT('Origin',(6.,2.8,-10.));
#1394=CARTESIAN_POINT('Origin',(6.,0.7,-10.));
#1395=CARTESIAN_POINT('',(4.6,0.7,-10.));
#1396=CARTESIAN_POINT('',(6.,0.7,-11.4));
#1397=CARTESIAN_POINT('Origin',(6.,0.7,-10.));
#1398=CARTESIAN_POINT('Origin',(6.,0.7,-11.7));
#1399=CARTESIAN_POINT('Origin',(6.,0.7,-10.));
#1400=CARTESIAN_POINT('Origin',(6.,0.,-10.));
#1401=CARTESIAN_POINT('',(4.6,0.2,-10.));
#1402=CARTESIAN_POINT('',(4.6,0.,-10.));
#1403=CARTESIAN_POINT('',(6.,0.2,-8.6));
#1404=CARTESIAN_POINT('Origin',(6.,0.2,-10.));
#1405=CARTESIAN_POINT('Origin',(6.,0.2,-10.));
#1406=CARTESIAN_POINT('Origin',(-6.,1.3,-10.));
#1407=CARTESIAN_POINT('',(-6.,1.,-7.64));
#1408=CARTESIAN_POINT('Origin',(-6.,1.,-10.));
#1409=CARTESIAN_POINT('',(-6.,1.3,-7.34));
#1410=CARTESIAN_POINT('Origin',(-6.,1.3,-7.64));
#1411=CARTESIAN_POINT('',(-8.66,1.3,-10.));
#1412=CARTESIAN_POINT('Origin',(-6.,1.3,-10.));
#1413=CARTESIAN_POINT('Origin',(-6.,1.3,-10.));
#1414=CARTESIAN_POINT('Origin',(-6.,1.,-10.));
#1415=CARTESIAN_POINT('',(-6.,1.,-11.7));
#1416=CARTESIAN_POINT('Origin',(-6.,1.,-10.));
#1417=CARTESIAN_POINT('Origin',(-6.,3.,-10.));
#1418=CARTESIAN_POINT('',(-8.66,2.8,-10.));
#1419=CARTESIAN_POINT('',(-6.,2.8,-7.34));
#1420=CARTESIAN_POINT('Origin',(-6.,2.8,-10.));
#1421=CARTESIAN_POINT('',(-8.66,3.,-10.));
#1422=CARTESIAN_POINT('Origin',(-6.,2.8,-10.));
#1423=CARTESIAN_POINT('Origin',(-6.,0.7,-10.));
#1424=CARTESIAN_POINT('',(-7.4,0.7,-10.));
#1425=CARTESIAN_POINT('',(-6.,0.7,-11.4));
#1426=CARTESIAN_POINT('Origin',(-6.,0.7,-10.));
#1427=CARTESIAN_POINT('Origin',(-6.,0.7,-11.7));
#1428=CARTESIAN_POINT('Origin',(-6.,0.7,-10.));
#1429=CARTESIAN_POINT('Origin',(-6.,0.,-10.));
#1430=CARTESIAN_POINT('',(-7.4,0.2,-10.));
#1431=CARTESIAN_POINT('',(-7.4,0.,-10.));
#1432=CARTESIAN_POINT('',(-6.,0.2,-8.6));
#1433=CARTESIAN_POINT('Origin',(-6.,0.2,-10.));
#1434=CARTESIAN_POINT('Origin',(-6.,0.2,-10.));
#1435=CARTESIAN_POINT('Origin',(6.,0.7,10.));
#1436=CARTESIAN_POINT('',(4.6,0.7,10.));
#1437=CARTESIAN_POINT('',(6.,0.7,8.6));
#1438=CARTESIAN_POINT('Origin',(6.,0.7,10.));
#1439=CARTESIAN_POINT('',(6.,1.,8.3));
#1440=CARTESIAN_POINT('Origin',(6.,0.7,8.3));
#1441=CARTESIAN_POINT('Origin',(6.,1.,10.));
#1442=CARTESIAN_POINT('Origin',(6.,0.7,10.));
#1443=CARTESIAN_POINT('Origin',(6.,1.,10.));
#1444=CARTESIAN_POINT('',(6.,1.,12.36));
#1445=CARTESIAN_POINT('Origin',(6.,1.,10.));
#1446=CARTESIAN_POINT('Origin',(6.,0.,10.));
#1447=CARTESIAN_POINT('',(4.6,0.2,10.));
#1448=CARTESIAN_POINT('',(4.6,0.,10.));
#1449=CARTESIAN_POINT('',(6.,0.2,11.4));
#1450=CARTESIAN_POINT('Origin',(6.,0.2,10.));
#1451=CARTESIAN_POINT('Origin',(6.,0.2,10.));
#1452=CARTESIAN_POINT('Origin',(-6.,0.7,10.));
#1453=CARTESIAN_POINT('',(-7.4,0.7,10.));
#1454=CARTESIAN_POINT('',(-6.,0.7,8.6));
#1455=CARTESIAN_POINT('Origin',(-6.,0.7,10.));
#1456=CARTESIAN_POINT('',(-6.,1.,8.3));
#1457=CARTESIAN_POINT('Origin',(-6.,0.7,8.3));
#1458=CARTESIAN_POINT('Origin',(-6.,1.,10.));
#1459=CARTESIAN_POINT('Origin',(-6.,0.7,10.));
#1460=CARTESIAN_POINT('Origin',(-6.,1.,10.));
#1461=CARTESIAN_POINT('',(-6.,1.,12.36));
#1462=CARTESIAN_POINT('Origin',(-6.,1.,10.));
#1463=CARTESIAN_POINT('Origin',(-6.,0.,10.));
#1464=CARTESIAN_POINT('',(-7.4,0.2,10.));
#1465=CARTESIAN_POINT('',(-7.4,0.,10.));
#1466=CARTESIAN_POINT('',(-6.,0.2,11.4));
#1467=CARTESIAN_POINT('Origin',(-6.,0.2,10.));
#1468=CARTESIAN_POINT('Origin',(-6.,0.2,10.));
#1469=CARTESIAN_POINT('Origin',(-6.,1.3,10.));
#1470=CARTESIAN_POINT('',(-6.,1.3,12.66));
#1471=CARTESIAN_POINT('Origin',(-6.,1.3,12.36));
#1472=CARTESIAN_POINT('',(-8.66,1.3,10.));
#1473=CARTESIAN_POINT('Origin',(-6.,1.3,10.));
#1474=CARTESIAN_POINT('Origin',(-6.,1.3,10.));
#1475=CARTESIAN_POINT('Origin',(-6.,3.,10.));
#1476=CARTESIAN_POINT('',(-8.66,2.8,10.));
#1477=CARTESIAN_POINT('',(-6.,2.8,12.66));
#1478=CARTESIAN_POINT('Origin',(-6.,2.8,10.));
#1479=CARTESIAN_POINT('',(-8.66,3.,10.));
#1480=CARTESIAN_POINT('Origin',(-6.,2.8,10.));
#1481=CARTESIAN_POINT('Origin',(6.,1.3,10.));
#1482=CARTESIAN_POINT('',(6.,1.3,12.66));
#1483=CARTESIAN_POINT('Origin',(6.,1.3,12.36));
#1484=CARTESIAN_POINT('',(3.34,1.3,10.));
#1485=CARTESIAN_POINT('Origin',(6.,1.3,10.));
#1486=CARTESIAN_POINT('Origin',(6.,1.3,10.));
#1487=CARTESIAN_POINT('Origin',(6.,3.,10.));
#1488=CARTESIAN_POINT('',(3.34,2.8,10.));
#1489=CARTESIAN_POINT('',(6.,2.8,12.66));
#1490=CARTESIAN_POINT('Origin',(6.,2.8,10.));
#1491=CARTESIAN_POINT('',(3.34,3.,10.));
#1492=CARTESIAN_POINT('Origin',(6.,2.8,10.));
#1493=CARTESIAN_POINT('Origin',(-6.,0.2,10.));
#1494=CARTESIAN_POINT('Origin',(-6.,0.2,11.6));
#1495=CARTESIAN_POINT('Origin',(-6.,0.2,-10.));
#1496=CARTESIAN_POINT('Origin',(-6.,0.2,-8.4));
#1497=CARTESIAN_POINT('Origin',(6.,0.2,-10.));
#1498=CARTESIAN_POINT('Origin',(6.,0.2,-8.4));
#1499=CARTESIAN_POINT('Origin',(6.,0.2,10.));
#1500=CARTESIAN_POINT('Origin',(6.,0.2,11.6));
#1501=CARTESIAN_POINT('Origin',(10.12,0.2,-2.95));
#1502=CARTESIAN_POINT('',(9.92,0.2,5.9));
#1503=CARTESIAN_POINT('Origin',(10.12,0.2,5.9));
#1504=CARTESIAN_POINT('',(9.92,0.2,-5.90000000000001));
#1505=CARTESIAN_POINT('',(9.92,0.2,-2.95));
#1506=CARTESIAN_POINT('Origin',(10.12,0.2,-5.9));
#1507=CARTESIAN_POINT('Origin',(9.92,3.,-5.90000000000001));
#1508=CARTESIAN_POINT('',(9.92,2.8,5.9));
#1509=CARTESIAN_POINT('',(9.92,3.,5.9));
#1510=CARTESIAN_POINT('',(9.92,2.8,-5.90000000000001));
#1511=CARTESIAN_POINT('',(9.92,2.8,-2.95));
#1512=CARTESIAN_POINT('',(9.92,3.,-5.90000000000001));
#1513=CARTESIAN_POINT('Origin',(-6.,2.8,-10.));
#1514=CARTESIAN_POINT('Origin',(-6.,2.8,-7.14));
#1515=CARTESIAN_POINT('Origin',(6.,2.8,-10.));
#1516=CARTESIAN_POINT('Origin',(6.,2.8,-7.14));
#1517=CARTESIAN_POINT('Origin',(6.,2.8,10.));
#1518=CARTESIAN_POINT('Origin',(6.,2.8,12.86));
#1519=CARTESIAN_POINT('Origin',(-6.,2.8,10.));
#1520=CARTESIAN_POINT('Origin',(-6.,2.8,12.86));
#1521=CARTESIAN_POINT('Origin',(-10.12,2.8,2.95));
#1522=CARTESIAN_POINT('',(-9.92,2.8,5.9));
#1523=CARTESIAN_POINT('Origin',(-10.12,2.8,6.1));
#1524=CARTESIAN_POINT('',(-9.92,2.8,-5.9));
#1525=CARTESIAN_POINT('',(-9.92,2.8,2.95));
#1526=CARTESIAN_POINT('Origin',(-10.12,2.8,-6.1));
#1527=CARTESIAN_POINT('Origin',(4.96,2.8,6.1));
#1528=CARTESIAN_POINT('Origin',(10.12,2.8,6.1));
#1529=CARTESIAN_POINT('',(4.96,2.8,5.9));
#1530=CARTESIAN_POINT('Origin',(10.12,2.8,-2.95));
#1531=CARTESIAN_POINT('Origin',(10.12,2.8,-6.1));
#1532=CARTESIAN_POINT('Origin',(-4.96,2.8,-6.1));
#1533=CARTESIAN_POINT('',(-4.96,2.8,-5.9));
#1534=CARTESIAN_POINT('Origin',(-9.92,3.,-5.9));
#1535=CARTESIAN_POINT('',(-9.92,3.,-5.9));
#1536=CARTESIAN_POINT('Origin',(-9.92,3.,5.9));
#1537=CARTESIAN_POINT('',(-9.92,3.,5.9));
#1538=CARTESIAN_POINT('Origin',(9.92,3.,5.9));
#1539=UNCERTAINTY_MEASURE_WITH_UNIT(LENGTH_MEASURE(0.01),#1543,
'DISTANCE_ACCURACY_VALUE',
'Maximum model space distance between geometric entities at asserted c
onnectivities');
#1540=UNCERTAINTY_MEASURE_WITH_UNIT(LENGTH_MEASURE(0.01),#1543,
'DISTANCE_ACCURACY_VALUE',
'Maximum model space distance between geometric entities at asserted c
onnectivities');
#1541=(
GEOMETRIC_REPRESENTATION_CONTEXT(3)
GLOBAL_UNCERTAINTY_ASSIGNED_CONTEXT((#1539))
GLOBAL_UNIT_ASSIGNED_CONTEXT((#1543,#1545,#1546))
REPRESENTATION_CONTEXT('','3D')
);
#1542=(
GEOMETRIC_REPRESENTATION_CONTEXT(3)
GLOBAL_UNCERTAINTY_ASSIGNED_CONTEXT((#1540))
GLOBAL_UNIT_ASSIGNED_CONTEXT((#1543,#1545,#1546))
REPRESENTATION_CONTEXT('','3D')
);
#1543=(
LENGTH_UNIT()
NAMED_UNIT(*)
SI_UNIT(.MILLI.,.METRE.)
);
#1544=(
LENGTH_UNIT()
NAMED_UNIT(*)
SI_UNIT($,.METRE.)
);
#1545=(
NAMED_UNIT(*)
PLANE_ANGLE_UNIT()
SI_UNIT($,.RADIAN.)
);
#1546=(
NAMED_UNIT(*)
SI_UNIT($,.STERADIAN.)
SOLID_ANGLE_UNIT()
);
#1547=SHAPE_DEFINITION_REPRESENTATION(#1548,#1549);
#1548=PRODUCT_DEFINITION_SHAPE('',$,#1551);
#1549=SHAPE_REPRESENTATION('',(#839),#1541);
#1550=PRODUCT_DEFINITION_CONTEXT('part definition',#1555,'design');
#1551=PRODUCT_DEFINITION('2026-06-07-22-42-00-392','ConnectorPartAcap',
#1552,#1550);
#1552=PRODUCT_DEFINITION_FORMATION('',$,#1557);
#1553=PRODUCT_RELATED_PRODUCT_CATEGORY('ConnectorPartAcap',
'ConnectorPartAcap',(#1557));
#1554=APPLICATION_PROTOCOL_DEFINITION('international standard',
'automotive_design',2009,#1555);
#1555=APPLICATION_CONTEXT(
'Core Data for Automotive Mechanical Design Process');
#1556=PRODUCT_CONTEXT('part definition',#1555,'mechanical');
#1557=PRODUCT('2026-06-07-22-42-00-392','ConnectorPartAcap',$,(#1556));
#1558=PRESENTATION_STYLE_ASSIGNMENT((#1559));
#1559=SURFACE_STYLE_USAGE(.BOTH.,#1560);
#1560=SURFACE_SIDE_STYLE('',(#1561));
#1561=SURFACE_STYLE_FILL_AREA(#1562);
#1562=FILL_AREA_STYLE('Default',(#1563));
#1563=FILL_AREA_STYLE_COLOUR('Default',#1564);
#1564=COLOUR_RGB('Default',0.749019607843137,0.749019607843137,0.749019607843137);
ENDSEC;
END-ISO-10303-21;
